<?xml version="1.0" encoding="utf-8"?>
<!-- Generator: Adobe Illustrator 26.1.0, SVG Export Plug-In . SVG Version: 6.00 Build 0)  -->
<svg version="1.1" id="Layer_1" xmlns="http://www.w3.org/2000/svg" xmlns:xlink="http://www.w3.org/1999/xlink" x="0px" y="0px"
	 viewBox="0 0 24 24" style="enable-background:new 0 0 24 24;" xml:space="preserve">
<style type="text/css">
	.st0{fill:#FFFFFF;}
</style>
<path class="st0" d="M-9.8-295c40.1,0,44.8,0.1,60.6,0.9c40.7,1.9,59.6,21.1,61.5,61.5c0.7,15.8,0.9,20.6,0.9,60.6
	c0,40.1-0.1,44.8-0.9,60.6c-1.9,40.3-20.8,59.6-61.5,61.5C35-49.2,30.2-49-9.8-49c-40.1,0-44.8-0.1-60.6-0.9
	c-40.8-1.9-59.6-21.2-61.5-61.5c-0.7-15.8-0.9-20.5-0.9-60.6c0-40.1,0.2-44.8,0.9-60.6c1.9-40.3,20.8-59.6,61.5-61.5
	C-54.6-294.8-49.9-295-9.8-295z M-9.8-322c-40.7,0-45.8,0.2-61.8,0.9c-54.5,2.5-84.8,32.7-87.3,87.2c-0.7,16-0.9,21.1-0.9,61.9
	s0.2,45.9,0.9,61.8c2.5,54.5,32.7,84.8,87.3,87.2c16,0.7,21.1,0.9,61.8,0.9S36-22.2,52-22.9c54.4-2.5,84.8-32.7,87.2-87.2
	c0.7-16,0.9-21.1,0.9-61.8s-0.2-45.8-0.9-61.8c-2.4-54.4-32.7-84.8-87.2-87.2C36-321.8,30.9-322-9.8-322z M-9.8-249
	c-42.5,0-77,34.5-77,77s34.5,77,77,77s77-34.5,77-77C67.2-214.5,32.7-249-9.8-249z M-9.8-122c-27.6,0-50-22.4-50-50
	c0-27.6,22.4-50,50-50s50,22.4,50,50C40.2-144.4,17.8-122-9.8-122z M70.2-270.1c-9.9,0-18,8.1-18,18s8.1,18,18,18
	c9.9,0,18-8.1,18-18S80.2-270.1,70.2-270.1z"/>
</svg>
