<svg xmlns="http://www.w3.org/2000/svg" xmlns:xlink="http://www.w3.org/1999/xlink" viewBox="0 0 25.6 10.2"><defs><radialGradient id="radial-gradient" cx="292.68" cy="27.3" r="234.63" gradientTransform="translate(-130.7 -39.3) scale(0.5 0.5)" gradientUnits="userSpaceOnUse"><stop offset="0" stop-color="#4da2d1"/><stop offset="0.11" stop-color="#4b9ecb"/><stop offset="0.25" stop-color="#4591bb"/><stop offset="0.41" stop-color="#3b7ca1"/><stop offset="0.58" stop-color="#2d607b"/><stop offset="0.76" stop-color="#1c3b4c"/><stop offset="0.95" stop-color="#070e12"/><stop offset="1"/></radialGradient><radialGradient id="radial-gradient-2" cx="292.68" cy="27.29" r="234.64" xlink:href="#radial-gradient"/><radialGradient id="radial-gradient-3" cx="292.68" cy="27.29" r="234.65" xlink:href="#radial-gradient"/><radialGradient id="radial-gradient-4" cx="292.68" cy="27.29" r="234.66" xlink:href="#radial-gradient"/><radialGradient id="radial-gradient-5" cx="292.67" cy="27.39" r="234.2" xlink:href="#radial-gradient"/><radialGradient id="radial-gradient-6" cx="292.69" cy="27.31" r="234.57" xlink:href="#radial-gradient"/><radialGradient id="radial-gradient-7" cx="292.68" cy="27.31" r="234.57" xlink:href="#radial-gradient"/><radialGradient id="radial-gradient-8" cx="292.68" cy="27.3" r="234.6" xlink:href="#radial-gradient"/><radialGradient id="radial-gradient-9" cx="292.68" cy="27.29" r="234.66" xlink:href="#radial-gradient"/><radialGradient id="radial-gradient-10" cx="292.69" cy="27.29" r="234.65" xlink:href="#radial-gradient"/><radialGradient id="radial-gradient-11" cx="292.68" cy="27.29" r="234.64" xlink:href="#radial-gradient"/><radialGradient id="radial-gradient-12" cx="292.68" cy="27.3" r="234.63" xlink:href="#radial-gradient"/><radialGradient id="radial-gradient-13" cx="292.66" cy="27.3" r="234.65" xlink:href="#radial-gradient"/><radialGradient id="radial-gradient-14" cx="292.68" cy="27.29" r="234.67" xlink:href="#radial-gradient"/><radialGradient id="radial-gradient-15" cx="292.68" cy="27.29" r="234.65" xlink:href="#radial-gradient"/><radialGradient id="radial-gradient-16" cx="292.68" cy="27.3" r="234.63" xlink:href="#radial-gradient"/><radialGradient id="radial-gradient-17" cx="292.68" cy="27.29" r="234.66" xlink:href="#radial-gradient"/><radialGradient id="radial-gradient-18" cx="292.68" cy="27.3" r="234.6" xlink:href="#radial-gradient"/><radialGradient id="radial-gradient-19" cx="292.68" cy="27.3" r="234.63" xlink:href="#radial-gradient"/><radialGradient id="radial-gradient-20" cx="292.68" cy="27.29" r="234.64" xlink:href="#radial-gradient"/><radialGradient id="radial-gradient-21" cx="292.68" cy="27.31" r="234.55" xlink:href="#radial-gradient"/><radialGradient id="radial-gradient-22" cx="292.68" cy="27.29" r="234.65" xlink:href="#radial-gradient"/><radialGradient id="radial-gradient-23" cx="292.68" cy="27.27" r="234.75" xlink:href="#radial-gradient"/><radialGradient id="radial-gradient-24" cx="292.68" cy="27.29" r="234.65" xlink:href="#radial-gradient"/><radialGradient id="radial-gradient-25" cx="292.68" cy="27.3" r="234.62" xlink:href="#radial-gradient"/><radialGradient id="radial-gradient-26" cx="292.68" cy="27.29" r="234.64" xlink:href="#radial-gradient"/><radialGradient id="radial-gradient-27" cx="292.68" cy="27.29" r="234.64" xlink:href="#radial-gradient"/><radialGradient id="radial-gradient-28" cx="292.68" cy="27.3" r="234.63" xlink:href="#radial-gradient"/><radialGradient id="radial-gradient-29" cx="292.68" cy="27.29" r="234.65" xlink:href="#radial-gradient"/><radialGradient id="radial-gradient-30" cx="292.68" cy="27.29" r="234.64" xlink:href="#radial-gradient"/><radialGradient id="radial-gradient-31" cx="292.68" cy="27.29" r="234.64" xlink:href="#radial-gradient"/><radialGradient id="radial-gradient-32" cx="292.68" cy="27.29" r="234.64" xlink:href="#radial-gradient"/><radialGradient id="radial-gradient-33" cx="292.68" cy="27.29" r="234.64" xlink:href="#radial-gradient"/><radialGradient id="radial-gradient-34" cx="292.69" cy="27.29" r="234.63" xlink:href="#radial-gradient"/><radialGradient id="radial-gradient-35" cx="292.69" cy="27.3" r="234.61" xlink:href="#radial-gradient"/><radialGradient id="radial-gradient-36" cx="292.68" cy="27.29" r="234.64" xlink:href="#radial-gradient"/><radialGradient id="radial-gradient-37" cx="292.68" cy="27.29" r="234.65" xlink:href="#radial-gradient"/><radialGradient id="radial-gradient-38" cx="292.68" cy="27.3" r="234.61" xlink:href="#radial-gradient"/><radialGradient id="radial-gradient-39" cx="292.68" cy="27.29" r="234.67" xlink:href="#radial-gradient"/><radialGradient id="radial-gradient-40" cx="292.68" cy="27.29" r="234.66" xlink:href="#radial-gradient"/><radialGradient id="radial-gradient-41" cx="292.67" cy="27.27" r="234.7" xlink:href="#radial-gradient"/><radialGradient id="radial-gradient-42" cx="292.68" cy="27.32" r="234.56" xlink:href="#radial-gradient"/><radialGradient id="radial-gradient-43" cx="292.68" cy="27.27" r="234.74" xlink:href="#radial-gradient"/><radialGradient id="radial-gradient-44" cx="292.68" cy="27.3" r="234.61" xlink:href="#radial-gradient"/><radialGradient id="radial-gradient-45" cx="292.68" cy="27.3" r="234.61" xlink:href="#radial-gradient"/><radialGradient id="radial-gradient-46" cx="292.69" cy="27.32" r="234.54" xlink:href="#radial-gradient"/><radialGradient id="radial-gradient-47" cx="292.68" cy="27.25" r="234.81" xlink:href="#radial-gradient"/><radialGradient id="radial-gradient-48" cx="292.68" cy="27.26" r="234.74" xlink:href="#radial-gradient"/><radialGradient id="radial-gradient-49" cx="292.68" cy="27.3" r="234.61" xlink:href="#radial-gradient"/><radialGradient id="radial-gradient-50" cx="292.68" cy="27.29" r="234.67" xlink:href="#radial-gradient"/><radialGradient id="radial-gradient-51" cx="292.68" cy="27.3" r="234.61" xlink:href="#radial-gradient"/><radialGradient id="radial-gradient-52" cx="292.68" cy="27.28" r="234.67" xlink:href="#radial-gradient"/><radialGradient id="radial-gradient-53" cx="292.69" cy="27.31" r="234.56" xlink:href="#radial-gradient"/><radialGradient id="radial-gradient-54" cx="286.64" cy="42.17" r="174.19" gradientTransform="translate(-128.8 -39.3) scale(0.5 0.5)" xlink:href="#radial-gradient"/><radialGradient id="radial-gradient-55" cx="286.64" cy="42.16" r="174.26" gradientTransform="translate(-128.8 -39.3) scale(0.5 0.5)" xlink:href="#radial-gradient"/><radialGradient id="radial-gradient-56" cx="286.64" cy="42.16" r="174.23" gradientTransform="translate(-128.8 -39.3) scale(0.5 0.5)" xlink:href="#radial-gradient"/><radialGradient id="radial-gradient-57" cx="286.64" cy="42.17" r="174.18" gradientTransform="translate(-128.8 -39.3) scale(0.5 0.5)" xlink:href="#radial-gradient"/><radialGradient id="radial-gradient-58" cx="286.64" cy="42.17" r="174.18" gradientTransform="translate(-128.8 -39.3) scale(0.5 0.5)" xlink:href="#radial-gradient"/><radialGradient id="radial-gradient-59" cx="286.64" cy="42.16" r="174.24" gradientTransform="translate(-128.8 -39.3) scale(0.5 0.5)" xlink:href="#radial-gradient"/><radialGradient id="radial-gradient-60" cx="286.64" cy="42.16" r="174.24" gradientTransform="translate(-128.8 -39.3) scale(0.5 0.5)" xlink:href="#radial-gradient"/><radialGradient id="radial-gradient-61" cx="286.64" cy="42.17" r="174.22" gradientTransform="translate(-128.8 -39.3) scale(0.5 0.5)" xlink:href="#radial-gradient"/><radialGradient id="radial-gradient-62" cx="286.64" cy="42.17" r="174.19" gradientTransform="translate(-128.8 -39.3) scale(0.5 0.5)" xlink:href="#radial-gradient"/><radialGradient id="radial-gradient-63" cx="286.64" cy="42.16" r="174.23" gradientTransform="translate(-128.8 -39.3) scale(0.5 0.5)" xlink:href="#radial-gradient"/><radialGradient id="radial-gradient-64" cx="286.64" cy="42.17" r="174.2" gradientTransform="translate(-128.8 -39.3) scale(0.5 0.5)" xlink:href="#radial-gradient"/><radialGradient id="radial-gradient-65" cx="286.64" cy="42.15" r="174.28" gradientTransform="translate(-128.8 -39.3) scale(0.5 0.5)" xlink:href="#radial-gradient"/><radialGradient id="radial-gradient-66" cx="286.64" cy="42.17" r="174.22" gradientTransform="translate(-128.8 -39.3) scale(0.5 0.5)" xlink:href="#radial-gradient"/><radialGradient id="radial-gradient-67" cx="286.64" cy="42.16" r="174.23" gradientTransform="translate(-128.8 -39.3) scale(0.5 0.5)" xlink:href="#radial-gradient"/><radialGradient id="radial-gradient-68" cx="286.64" cy="42.16" r="174.24" gradientTransform="translate(-128.8 -39.3) scale(0.5 0.5)" xlink:href="#radial-gradient"/><radialGradient id="radial-gradient-69" cx="286.64" cy="42.16" r="174.25" gradientTransform="translate(-128.8 -39.3) scale(0.5 0.5)" xlink:href="#radial-gradient"/><radialGradient id="radial-gradient-70" cx="286.64" cy="42.16" r="174.24" gradientTransform="translate(-128.8 -39.3) scale(0.5 0.5)" xlink:href="#radial-gradient"/><radialGradient id="radial-gradient-71" cx="286.64" cy="42.16" r="174.23" gradientTransform="translate(-128.8 -39.3) scale(0.5 0.5)" xlink:href="#radial-gradient"/><radialGradient id="radial-gradient-72" cx="286.64" cy="42.16" r="174.25" gradientTransform="translate(-128.8 -39.3) scale(0.5 0.5)" xlink:href="#radial-gradient"/><radialGradient id="radial-gradient-73" cx="286.65" cy="42.15" r="174.25" gradientTransform="translate(-128.8 -39.3) scale(0.5 0.5)" xlink:href="#radial-gradient"/><radialGradient id="radial-gradient-74" cx="286.64" cy="42.16" r="174.25" gradientTransform="translate(-128.8 -39.3) scale(0.5 0.5)" xlink:href="#radial-gradient"/><radialGradient id="radial-gradient-75" cx="286.64" cy="42.16" r="174.23" gradientTransform="translate(-128.8 -39.3) scale(0.5 0.5)" xlink:href="#radial-gradient"/><radialGradient id="radial-gradient-76" cx="286.64" cy="42.16" r="174.24" gradientTransform="translate(-128.8 -39.3) scale(0.5 0.5)" xlink:href="#radial-gradient"/><radialGradient id="radial-gradient-77" cx="286.64" cy="42.16" r="174.24" gradientTransform="translate(-128.8 -39.3) scale(0.5 0.5)" xlink:href="#radial-gradient"/><radialGradient id="radial-gradient-78" cx="286.64" cy="42.16" r="174.23" gradientTransform="translate(-128.8 -39.3) scale(0.5 0.5)" xlink:href="#radial-gradient"/><radialGradient id="radial-gradient-79" cx="286.64" cy="42.16" r="174.23" gradientTransform="translate(-128.8 -39.3) scale(0.5 0.5)" xlink:href="#radial-gradient"/><radialGradient id="radial-gradient-80" cx="286.64" cy="42.16" r="174.23" gradientTransform="translate(-128.8 -39.3) scale(0.5 0.5)" xlink:href="#radial-gradient"/><radialGradient id="radial-gradient-81" cx="286.64" cy="42.16" r="174.25" gradientTransform="translate(-128.8 -39.3) scale(0.5 0.5)" xlink:href="#radial-gradient"/><radialGradient id="radial-gradient-82" cx="286.64" cy="42.16" r="174.24" gradientTransform="translate(-128.8 -39.3) scale(0.5 0.5)" xlink:href="#radial-gradient"/><radialGradient id="radial-gradient-83" cx="286.64" cy="42.16" r="174.22" gradientTransform="translate(-128.8 -39.3) scale(0.5 0.5)" xlink:href="#radial-gradient"/><radialGradient id="radial-gradient-84" cx="286.65" cy="42.16" r="174.22" gradientTransform="translate(-128.8 -39.3) scale(0.5 0.5)" xlink:href="#radial-gradient"/><radialGradient id="radial-gradient-85" cx="286.64" cy="42.16" r="174.23" gradientTransform="translate(-128.8 -39.3) scale(0.5 0.5)" xlink:href="#radial-gradient"/><radialGradient id="radial-gradient-86" cx="286.64" cy="42.19" r="174.13" gradientTransform="translate(-128.8 -39.3) scale(0.5 0.5)" xlink:href="#radial-gradient"/><radialGradient id="radial-gradient-87" cx="286.64" cy="42.16" r="174.24" gradientTransform="translate(-128.8 -39.3) scale(0.5 0.5)" xlink:href="#radial-gradient"/><radialGradient id="radial-gradient-88" cx="286.64" cy="42.16" r="174.23" gradientTransform="translate(-128.8 -39.3) scale(0.5 0.5)" xlink:href="#radial-gradient"/><radialGradient id="radial-gradient-89" cx="286.64" cy="42.16" r="174.24" gradientTransform="translate(-128.8 -39.3) scale(0.5 0.5)" xlink:href="#radial-gradient"/><radialGradient id="radial-gradient-90" cx="286.64" cy="42.16" r="174.23" gradientTransform="translate(-128.8 -39.3) scale(0.5 0.5)" xlink:href="#radial-gradient"/><radialGradient id="radial-gradient-91" cx="286.64" cy="42.16" r="174.24" gradientTransform="translate(-128.8 -39.3) scale(0.5 0.5)" xlink:href="#radial-gradient"/><radialGradient id="radial-gradient-92" cx="286.64" cy="42.16" r="174.24" gradientTransform="translate(-128.8 -39.3) scale(0.5 0.5)" xlink:href="#radial-gradient"/><radialGradient id="radial-gradient-93" cx="286.64" cy="42.16" r="174.25" gradientTransform="translate(-128.8 -39.3) scale(0.5 0.5)" xlink:href="#radial-gradient"/><radialGradient id="radial-gradient-94" cx="286.64" cy="42.16" r="174.23" gradientTransform="translate(-128.8 -39.3) scale(0.5 0.5)" xlink:href="#radial-gradient"/><radialGradient id="radial-gradient-95" cx="286.64" cy="42.16" r="174.24" gradientTransform="translate(-128.8 -39.3) scale(0.5 0.5)" xlink:href="#radial-gradient"/><radialGradient id="radial-gradient-96" cx="286.64" cy="42.16" r="174.23" gradientTransform="translate(-128.8 -39.3) scale(0.5 0.5)" xlink:href="#radial-gradient"/><radialGradient id="radial-gradient-97" cx="286.64" cy="42.16" r="174.24" gradientTransform="translate(-128.8 -39.3) scale(0.5 0.5)" xlink:href="#radial-gradient"/><radialGradient id="radial-gradient-98" cx="286.65" cy="42.16" r="174.22" gradientTransform="translate(-128.8 -39.3) scale(0.5 0.5)" xlink:href="#radial-gradient"/><radialGradient id="radial-gradient-99" cx="286.63" cy="42.17" r="174.22" gradientTransform="translate(-128.8 -39.3) scale(0.5 0.5)" xlink:href="#radial-gradient"/><radialGradient id="radial-gradient-100" cx="286.64" cy="42.16" r="174.23" gradientTransform="translate(-128.8 -39.3) scale(0.5 0.5)" xlink:href="#radial-gradient"/><radialGradient id="radial-gradient-101" cx="286.64" cy="42.16" r="174.23" gradientTransform="translate(-128.8 -39.3) scale(0.5 0.5)" xlink:href="#radial-gradient"/><radialGradient id="radial-gradient-102" cx="286.64" cy="42.13" r="174.32" gradientTransform="translate(-128.8 -39.3) scale(0.5 0.5)" xlink:href="#radial-gradient"/><radialGradient id="radial-gradient-103" cx="286.64" cy="42.15" r="174.26" gradientTransform="translate(-128.8 -39.3) scale(0.5 0.5)" xlink:href="#radial-gradient"/><radialGradient id="radial-gradient-104" cx="286.64" cy="42.18" r="174.16" gradientTransform="translate(-128.8 -39.3) scale(0.5 0.5)" xlink:href="#radial-gradient"/><radialGradient id="radial-gradient-105" cx="286.64" cy="42.17" r="174.22" gradientTransform="translate(-128.8 -39.3) scale(0.5 0.5)" xlink:href="#radial-gradient"/><radialGradient id="radial-gradient-106" cx="286.64" cy="42.19" r="174.13" gradientTransform="translate(-128.8 -39.3) scale(0.5 0.5)" xlink:href="#radial-gradient"/><radialGradient id="radial-gradient-107" cx="286.65" cy="42.14" r="174.34" gradientTransform="translate(-128.8 -39.3) scale(0.5 0.5)" xlink:href="#radial-gradient"/><radialGradient id="radial-gradient-108" cx="286.66" cy="42.17" r="174.16" gradientTransform="translate(-128.8 -39.3) scale(0.5 0.5)" xlink:href="#radial-gradient"/><radialGradient id="radial-gradient-109" cx="286.65" cy="42.13" r="174.33" gradientTransform="translate(-128.8 -39.3) scale(0.5 0.5)" xlink:href="#radial-gradient"/><radialGradient id="radial-gradient-110" cx="286.63" cy="42.17" r="174.22" gradientTransform="translate(-128.8 -39.3) scale(0.5 0.5)" xlink:href="#radial-gradient"/><radialGradient id="radial-gradient-111" cx="286.65" cy="42.14" r="174.29" gradientTransform="translate(-128.8 -39.3) scale(0.5 0.5)" xlink:href="#radial-gradient"/><radialGradient id="radial-gradient-112" cx="286.65" cy="42.18" r="174.17" gradientTransform="translate(-128.8 -39.3) scale(0.5 0.5)" xlink:href="#radial-gradient"/><radialGradient id="radial-gradient-113" cx="286.64" cy="42.14" r="174.31" gradientTransform="translate(-128.8 -39.3) scale(0.5 0.5)" xlink:href="#radial-gradient"/><radialGradient id="radial-gradient-114" cx="286.64" cy="42.19" r="174.12" gradientTransform="translate(-128.8 -39.3) scale(0.5 0.5)" xlink:href="#radial-gradient"/><radialGradient id="radial-gradient-115" cx="286.65" cy="42.16" r="174.25" gradientTransform="translate(-128.8 -39.3) scale(0.5 0.5)" xlink:href="#radial-gradient"/><radialGradient id="radial-gradient-116" cx="286.64" cy="42.18" r="174.17" gradientTransform="translate(-128.8 -39.3) scale(0.5 0.5)" xlink:href="#radial-gradient"/><radialGradient id="radial-gradient-117" cx="286.64" cy="42.14" r="174.31" gradientTransform="translate(-128.8 -39.3) scale(0.5 0.5)" xlink:href="#radial-gradient"/><radialGradient id="radial-gradient-118" cx="286.64" cy="42.16" r="174.25" gradientTransform="translate(-128.8 -39.3) scale(0.5 0.5)" xlink:href="#radial-gradient"/><radialGradient id="radial-gradient-119" cx="286.64" cy="42.14" r="174.3" gradientTransform="translate(-128.8 -39.3) scale(0.5 0.5)" xlink:href="#radial-gradient"/><radialGradient id="radial-gradient-120" cx="286.64" cy="42.16" r="174.25" gradientTransform="translate(-128.8 -39.3) scale(0.5 0.5)" xlink:href="#radial-gradient"/><radialGradient id="radial-gradient-121" cx="286.66" cy="42.16" r="174.28" gradientTransform="translate(-128.8 -39.3) scale(0.5 0.5)" xlink:href="#radial-gradient"/><radialGradient id="radial-gradient-122" cx="286.64" cy="42.21" r="174.03" gradientTransform="translate(-128.8 -39.3) scale(0.5 0.5)" xlink:href="#radial-gradient"/></defs><g id="Layer_2" data-name="Layer 2"><g id="Layer_1-2" data-name="Layer 1"><g style="opacity:0.2"><polygon points="15.2 0 15 0.1 15.1 0 15 0 14.9 0.1 14.8 0.3 15 0.1 15.3 0 15.2 0" style="fill:url(#radial-gradient)"/><polygon points="19.7 0 19.6 0 19.1 2.6 19.1 2.6 19.1 2.6 25.6 2.3 25.6 2.2 19.1 2.6 19.7 0" style="fill:url(#radial-gradient-2)"/><polygon points="7.4 0 5.1 4.4 4.2 0 4.1 0 5 4.4 5 4.6 5.1 4.5 7.4 0 7.4 0" style="fill:url(#radial-gradient-3)"/><polygon points="16.3 0 15.7 1.2 15.6 0 15.6 0 15.6 1.2 15.7 1.4 15.8 1.2 16.4 0 16.3 0" style="fill:url(#radial-gradient-4)"/><polygon points="9.8 0 9.8 0 9.8 0 9.7 0 9.6 0 9.7 0.1 9.8 0.1 9.8 0 9.8 0" style="fill:url(#radial-gradient-5)"/><polygon points="22.8 0 22.7 0 21.8 0.8 21.7 0.9 21.8 0.9 25.6 0.8 25.6 0.8 21.8 0.8 22.8 0" style="fill:url(#radial-gradient-6)"/><polygon points="25.3 0 25.3 0 25.5 0.4 23.6 0 23.4 0 25.5 0.4 25.6 0.5 25.5 0.3 25.3 0" style="fill:url(#radial-gradient-7)"/><polygon points="21.1 0 19.9 0.8 19.4 0 19.4 0 19.8 0.8 19.9 0.8 19.9 0.8 21.2 0 21.1 0" style="fill:url(#radial-gradient-8)"/><polygon points="25.3 0 24.4 2.1 21.3 0 21.2 0 24.4 2.1 24.4 2.2 24.5 2.1 25.4 0 25.3 0" style="fill:url(#radial-gradient-9)"/><polygon points="23.1 0 23 0 22.2 4.3 22.2 4.4 22.3 4.3 25.6 2.5 25.6 2.4 22.2 4.3 23.1 0" style="fill:url(#radial-gradient-10)"/><polygon points="16.5 0 16.5 0 18.8 6.3 11.6 0 11.5 0 18.8 6.4 19 6.5 18.9 6.3 16.5 0" style="fill:url(#radial-gradient-11)"/><polygon points="14.8 0 14.7 0 18.2 3 17.8 3.4 14.3 0 14.2 0 17.7 3.5 17.8 3.5 17.8 3.5 18.2 3 18.2 3 18.2 3 14.8 0" style="fill:url(#radial-gradient-12)"/><polygon points="22.9 0 23.1 0.9 22.7 0 22.7 0 23 0.9 23.1 0.9 23 0 22.9 0" style="fill:url(#radial-gradient-13)"/><polygon points="23.6 0 16.4 1 16.2 0 16.2 0 16.3 1 16.3 1.1 16.4 1.1 24.1 0 23.6 0" style="fill:url(#radial-gradient-14)"/><polygon points="23.9 0 22.8 5.2 13.5 3.9 18.3 0 18.2 0 13.4 3.8 13.3 3.9 13.5 3.9 22.8 5.2 22.8 5.2 22.8 5.2 24 0 23.9 0" style="fill:url(#radial-gradient-15)"/><polygon points="13.7 0 13.6 0 15 1.4 6 7.1 6.4 0 6.3 0 6 7.1 5.9 7.3 6 7.2 15 1.4 15.1 1.4 15 1.3 13.7 0" style="fill:url(#radial-gradient-16)"/><polygon points="13.3 0 12.1 2.7 5.3 3.3 10.5 0 10.3 0 5.3 3.3 5.1 3.4 5.3 3.4 12.1 2.8 12.2 2.8 12.2 2.7 13.3 0 13.3 0" style="fill:url(#radial-gradient-17)"/><polygon points="0 0.1 0 0.1 13.1 1.3 0 0.8 0 0.9 13.1 1.4 13.1 1.3 0 0.1" style="fill:url(#radial-gradient-18)"/><polygon points="8.3 0 8.2 0 11.4 2.4 8.1 2 7.3 0 7.2 0 8 2 8.1 2.1 8.1 2.1 11.4 2.4 11.7 2.5 11.5 2.3 8.3 0" style="fill:url(#radial-gradient-19)"/><polygon points="10.8 0 10.4 7.7 5.8 4.3 8 0 7.9 0 5.7 4.3 5.7 4.3 5.7 4.3 10.4 7.7 10.4 7.8 10.5 7.7 10.9 0 10.8 0" style="fill:url(#radial-gradient-20)"/><path d="M10,.4l3.4.4L9,1.5,10,.4m0,0h0L8.9,1.5H9L13.4.9h0L10,.4Z" style="fill:url(#radial-gradient-21)"/><polygon points="7.7 0 7.7 0 8 3.8 7.6 3.8 7.6 0 7.5 0 7.5 3.9 7.6 3.9 8 3.8 8.1 3.8 8.1 3.8 7.7 0" style="fill:url(#radial-gradient-22)"/><path d="M7.3,1.6h0m0,0L6.9,2V1.6h.4m.2-.1H6.8V2h.1l.5-.4Z" style="fill:url(#radial-gradient-23)"/><polygon points="2 0 1.9 0 5.8 4.6 0.3 5.7 0.3 0 0.3 0 0.3 5.8 0.3 5.8 5.8 4.6 5.9 4.6 5.8 4.5 2 0" style="fill:url(#radial-gradient-24)"/><path d="M3.4.5,5.8,2.9,3,3.6V.9L3.4.5m0-.1h0L2.9.8h0V3.6H3L5.8,3h.1L3.4.4Z" style="fill:url(#radial-gradient-25)"/><polygon points="2.7 0 2.7 0 4.4 9 0 3.8 0 3.9 4.4 9 4.5 9.2 4.5 9 2.7 0" style="fill:url(#radial-gradient-26)"/><polygon points="19.3 0 16 9.7 12.4 0 12.3 0 15.9 9.7 16 9.9 16 9.7 19.4 0 19.3 0" style="fill:url(#radial-gradient-27)"/><polygon points="18.1 0 12.8 4.2 14.3 0 14.2 0 12.7 4.2 12.7 4.4 12.8 4.2 18.1 0 18.1 0" style="fill:url(#radial-gradient-28)"/><polygon points="15.9 0 15.8 0 18.6 4 15 6.6 14.7 0 14.6 0 14.9 6.6 14.9 6.7 15 6.7 18.6 4 18.6 4 18.6 4 15.9 0" style="fill:url(#radial-gradient-29)"/><polygon points="12.6 0 12.5 0 16.2 5.1 7.4 5.3 12.3 0 12.3 0 7.4 5.3 7.3 5.4 7.4 5.4 16.2 5.1 16.4 5.1 16.3 5 12.6 0" style="fill:url(#radial-gradient-30)"/><polygon points="2.8 0 2.5 0 5.5 0.7 0 4.3 0 4.4 5.5 0.7 5.6 0.7 5.5 0.6 2.8 0" style="fill:url(#radial-gradient-31)"/><polygon points="6.1 0 0 4.1 0 4.2 6.2 0 6.1 0" style="fill:url(#radial-gradient-32)"/><polygon points="7.3 0 1.2 7.4 0 6.1 0 6.2 1.2 7.4 1.2 7.5 1.3 7.4 7.4 0 7.3 0" style="fill:url(#radial-gradient-33)"/><polygon points="25.6 3.2 25.2 3 25.6 2.3 25.6 2.1 25.1 3 25.1 3.1 25.2 3.1 25.6 3.3 25.6 3.2" style="fill:url(#radial-gradient-34)"/><polygon points="24.3 0 24.3 0 24.5 0.2 25.6 1.4 25.6 1.3 24.5 0.2 25.6 0.7 25.6 0.6 24.5 0.1 24.3 0" style="fill:url(#radial-gradient-35)"/><path d="M1.8,1.9,3,2.6,1.8,5.5V1.9m-.1-.1h0V5.5L3,2.6H3L1.8,1.8Z" style="fill:url(#radial-gradient-36)"/><polygon points="4.1 6.9 0 4.1 0 4.1 4.1 6.9 0 6 0 6 4.1 7 4.4 7.1 4.1 6.9" style="fill:url(#radial-gradient-37)"/><path d="M2.2,5.6a.5.5,0,0,1-.5.5.5.5,0,0,1-.5-.5.5.5,0,0,1,.5-.5A.5.5,0,0,1,2.2,5.6Z" style="fill:url(#radial-gradient-38)"/><path d="M4.8,7a.6.6,0,0,1-.5.5A.5.5,0,0,1,3.8,7a.5.5,0,0,1,.5-.5A.5.5,0,0,1,4.8,7Z" style="fill:url(#radial-gradient-39)"/><path d="M5.6,4.5a.5.5,0,0,1-.5.5.5.5,0,0,1-.5-.5A.5.5,0,0,1,5.1,4,.6.6,0,0,1,5.6,4.5Z" style="fill:url(#radial-gradient-40)"/><path d="M3.5,3.7a.5.5,0,0,1-.5.5.5.5,0,0,1-.5-.5A.6.6,0,0,1,3,3.2.5.5,0,0,1,3.5,3.7Z" style="fill:url(#radial-gradient-41)"/><path d="M2.2,1.8a.5.5,0,0,1-.5.5.5.5,0,0,1-.4-.5.4.4,0,0,1,.4-.4A.5.5,0,0,1,2.2,1.8Z" style="fill:url(#radial-gradient-42)"/><path d="M23.2,5.2a.4.4,0,0,1-.4.4.4.4,0,0,1-.4-.4c0-.3.1-.4.4-.4A.4.4,0,0,1,23.2,5.2Z" style="fill:url(#radial-gradient-43)"/><path d="M19.3,6.5a.4.4,0,0,1-.4.4.4.4,0,0,1-.4-.4.4.4,0,0,1,.4-.4A.4.4,0,0,1,19.3,6.5Z" style="fill:url(#radial-gradient-44)"/><path d="M16.7,5.1a.5.5,0,0,1-.5.4.4.4,0,0,1-.4-.4.5.5,0,0,1,.4-.5A.5.5,0,0,1,16.7,5.1Z" style="fill:url(#radial-gradient-45)"/><path d="M13.2,4.3a.5.5,0,0,1-.5.4.4.4,0,0,1-.4-.4.4.4,0,0,1,.4-.4A.5.5,0,0,1,13.2,4.3Z" style="fill:url(#radial-gradient-46)"/><path d="M19.5,2.7a.4.4,0,0,1-.8,0,.4.4,0,1,1,.8,0Z" style="fill:url(#radial-gradient-47)"/><path d="M16.5,9.8c0,.3-.2.4-.5.4a.4.4,0,0,1-.4-.4.4.4,0,0,1,.4-.4A.5.5,0,0,1,16.5,9.8Z" style="fill:url(#radial-gradient-48)"/><path d="M10.9,7.7a.4.4,0,0,1-.4.4.5.5,0,0,1-.5-.4.5.5,0,0,1,.5-.4A.4.4,0,0,1,10.9,7.7Z" style="fill:url(#radial-gradient-49)"/><path d="M6.4,7.1a.5.5,0,0,1-.4.5.5.5,0,0,1-.4-.5.4.4,0,0,1,.8,0Z" style="fill:url(#radial-gradient-50)"/><path d="M7.9,5.3a.4.4,0,1,1-.8,0,.4.4,0,0,1,.8,0Z" style="fill:url(#radial-gradient-51)"/><path d="M4.8,9a.4.4,0,0,1-.4.4A.4.4,0,0,1,4,9a.5.5,0,0,1,.4-.5A.5.5,0,0,1,4.8,9Z" style="fill:url(#radial-gradient-52)"/><path d="M9.6,0h0a.2.2,0,0,0,.4,0H9.6Z" style="fill:url(#radial-gradient-53)"/></g><polygon points="18.6 0 18.1 0.5 18.3 0 18.2 0 18 0.5 17.9 0.7 18.1 0.6 18.6 0 18.6 0" style="fill:url(#radial-gradient-54)"/><polygon points="16.3 0 14.4 0.9 15.2 0 15.1 0 14.4 0.9 14.3 1 14.5 0.9 16.4 0 16.3 0" style="fill:url(#radial-gradient-55)"/><polygon points="22.4 0 22.4 0 23.8 2.4 17.5 2.7 18.1 0 18.1 0 17.5 2.7 17.5 2.8 17.5 2.8 23.8 2.4 23.9 2.4 23.8 2.4 22.4 0" style="fill:url(#radial-gradient-56)"/><polygon points="9.2 0 9.1 0 9.2 0.4 4.9 0.4 4.9 0 4.9 0 4.9 0.4 4.9 0.4 9.2 0.5 9.2 0.5 9.2 0.4 9.2 0" style="fill:url(#radial-gradient-57)"/><polygon points="12.8 0 12.3 0.5 12.3 0 12.2 0 12.2 0.5 12.2 0.6 12.3 0.6 12.9 0 12.8 0" style="fill:url(#radial-gradient-58)"/><polygon points="9.2 0 7 4.1 6.2 0 6.2 0 7 4.1 7 4.3 7.1 4.2 9.2 0 9.2 0" style="fill:url(#radial-gradient-59)"/><polygon points="24.3 0 24.2 0 24.5 3 22.6 0 22.6 0 24.4 3 24.5 3.2 24.5 3 24.3 0" style="fill:url(#radial-gradient-60)"/><polygon points="15.9 0 15 1.7 14.9 0 14.8 0 14.9 1.7 14.9 1.9 15 1.7 15.9 0 15.9 0" style="fill:url(#radial-gradient-61)"/><polygon points="10.5 0 10.5 0 10.5 0.8 8.4 0 8.3 0 10.5 0.9 10.6 0.9 10.6 0.8 10.5 0" style="fill:url(#radial-gradient-62)"/><polygon points="23.6 0 23.5 1.4 19.5 1.5 21.1 0 21.1 0 19.5 1.4 19.4 1.5 19.5 1.5 23.5 1.4 23.5 1.4 23.5 1.4 23.7 0 23.6 0" style="fill:url(#radial-gradient-63)"/><polygon points="19.3 0 19.1 0 19.8 0.2 9.4 0.7 10.1 0 10.1 0 9.4 0.7 9.3 0.8 9.4 0.8 19.8 0.2 20.1 0.2 19.8 0.1 19.3 0" style="fill:url(#radial-gradient-64)"/><polygon points="18.8 0 18.7 0 19.6 0.6 12.9 0 12.5 0 19.6 0.6 19.8 0.7 19.6 0.6 18.8 0" style="fill:url(#radial-gradient-65)"/><polygon points="21.6 0 21.6 0 22.3 1.1 16.7 0 16.5 0 22.2 1.2 22.3 1.2 22.3 1.1 21.6 0" style="fill:url(#radial-gradient-66)"/><polygon points="20.3 0 18.1 1.4 17.2 0 17.2 0 18.1 1.4 18.1 1.5 18.1 1.4 20.4 0 20.3 0" style="fill:url(#radial-gradient-67)"/><polygon points="22.5 0 21.5 2.4 18.8 0.6 19.8 0 19.7 0 18.8 0.6 18.7 0.6 18.8 0.7 21.4 2.4 21.5 2.4 21.5 2.4 22.6 0 22.5 0" style="fill:url(#radial-gradient-68)"/><polygon points="23.5 0 22.8 3.9 22.5 0 22.4 0 22.7 3.9 22.7 4.3 22.8 3.9 23.6 0 23.5 0" style="fill:url(#radial-gradient-69)"/><polygon points="24.7 0 24.7 0 25.5 0.9 19.8 4 20.6 0 20.6 0 19.8 4 19.8 4.1 19.9 4 25.6 0.9 25.6 0.9 25.6 0.9 24.7 0" style="fill:url(#radial-gradient-70)"/><polygon points="15.3 0 15.2 0 17.3 5.5 11 0 10.9 0 17.3 5.6 17.4 5.7 17.3 5.5 15.3 0" style="fill:url(#radial-gradient-71)"/><polygon points="13.4 0 13.3 0 16.8 3.1 16.5 3.4 13 0 13 0 16.5 3.4 16.5 3.4 16.6 3.4 16.8 3.1 16.9 3.1 16.8 3 13.4 0" style="fill:url(#radial-gradient-72)"/><polygon points="20.2 0 20.4 1.5 19.9 0 19.9 0 20.4 1.5 20.5 1.5 20.3 0 20.2 0" style="fill:url(#radial-gradient-73)"/><polygon points="17.7 0 17.4 0 22.1 0.7 15.5 1.6 15.2 0 15.2 0 15.4 1.6 15.4 1.6 15.5 1.6 22.1 0.7 22.4 0.7 22.1 0.6 17.7 0" style="fill:url(#radial-gradient-74)"/><polygon points="21.3 0 20.2 4.7 13.3 3.7 18 0 17.9 0 13.3 3.7 13.2 3.7 13.3 3.7 20.2 4.7 20.3 4.7 20.3 4.7 21.3 0 21.3 0" style="fill:url(#radial-gradient-75)"/><polygon points="12.6 0 12.5 0 14.4 1.8 7.7 6.1 8.1 0 8 0 7.7 6.1 7.7 6.2 7.8 6.2 14.4 1.9 14.5 1.9 14.4 1.8 12.6 0" style="fill:url(#radial-gradient-76)"/><polygon points="13.5 0 12.3 2.8 7.2 3.3 12.4 0 12.3 0 7.2 3.3 7.1 3.4 7.2 3.3 12.3 2.9 12.3 2.9 12.4 2.9 13.5 0 13.5 0" style="fill:url(#radial-gradient-77)"/><polygon points="0.1 0.6 0 0.6 0 0.6 0 0.6 0 0.7 0 0.7 13.1 1.8 0 1.3 0 1.4 13.1 1.9 13.1 1.8 0.1 0.6" style="fill:url(#radial-gradient-78)"/><path d="M8.4.1H8.3l1,2.2h0l2.5.3h0Zm.9,2.2L8.3.1l3.5,2.5Z" style="fill:url(#radial-gradient-79)"/><polygon points="11.4 0 11 6.5 7.6 4 9.7 0 9.6 0 7.5 4 7.5 4 7.5 4.1 11 6.6 11.1 6.6 11.1 6.5 11.4 0 11.4 0" style="fill:url(#radial-gradient-80)"/><path d="M10.7,1.2l2.5.2-3.3.5.8-.7m0-.1h0l-.8.8H10l3.2-.5h0l-2.5-.3Z" style="fill:url(#radial-gradient-81)"/><polygon points="9 0 8.9 0 9.2 3.6 8.9 3.7 8.9 0 8.9 0 8.9 3.7 8.9 3.7 9.2 3.7 9.3 3.7 9.3 3.6 9 0" style="fill:url(#radial-gradient-82)"/><polygon points="25.6 1.5 24.6 3.3 24.9 0.5 25.6 1.1 25.6 1 24.9 0.4 24.8 0.4 24.8 0.5 24.6 3.3 24.6 3.5 24.7 3.3 25.6 1.6 25.6 1.5" style="fill:url(#radial-gradient-83)"/><polygon points="25.6 3 25.2 2.6 25.6 2.2 25.6 2.1 25.1 2.6 25.1 2.6 25.1 2.7 25.6 3 25.6 3" style="fill:url(#radial-gradient-84)"/><polygon points="25.6 1.5 23.6 3.4 25.6 0.8 25.6 0.8 25.6 0.7 25.6 0.7 25.6 0.7 23.6 3.3 23.7 3.4 25.6 1.5 25.6 1.5" style="fill:url(#radial-gradient-85)"/><path d="M8.7,2h0m0,0-.3.3V2.1h.3m.1,0H8.4v.2h0l.3-.2Z" style="fill:url(#radial-gradient-86)"/><polygon points="4 0 4 0 7.6 4.2 3.5 5.1 3.5 0 3.5 0 3.5 5.1 3.5 5.1 7.6 4.3 7.6 4.3 7.6 4.2 4 0" style="fill:url(#radial-gradient-87)"/><path d="M5.8,1.2,7.6,3l-2.1.5v-2l.3-.3m0-.1h0l-.3.2H5.4v2h.1L7.6,3h0L5.8,1.2Z" style="fill:url(#radial-gradient-88)"/><polygon points="5.1 0 5.1 0 6.6 7.5 2.5 2.7 2.5 0 2.4 0 2.4 2.8 2.5 2.8 6.5 7.5 6.6 7.7 6.6 7.5 5.1 0" style="fill:url(#radial-gradient-89)"/><polygon points="18 0 15.2 8 12.2 0 12.1 0 15.1 8 15.2 8.2 15.2 8 18 0 18 0" style="fill:url(#radial-gradient-90)"/><polygon points="17.8 0 12.8 4 14.2 0 14.1 0 12.8 3.9 12.7 4.1 12.8 4 17.8 0 17.8 0" style="fill:url(#radial-gradient-91)"/><polygon points="14.5 0 14.4 0 17.1 3.8 14.4 5.8 14.2 0 14.1 0 14.4 5.8 14.4 5.8 14.5 5.8 17.1 3.8 17.2 3.8 17.1 3.8 14.5 0" style="fill:url(#radial-gradient-92)"/><path d="M12.5.8l2.9,3.8-6.6.2,3.7-4m0-.1h0L8.8,4.8h0l6.6-.2h0L12.6.7Z" style="fill:url(#radial-gradient-93)"/><polygon points="1.8 0 1.6 0 7.3 1.3 0 6.2 0 6.1 0 6.3 0 6.2 7.4 1.4 7.4 1.3 7.3 1.3 1.8 0" style="fill:url(#radial-gradient-94)"/><polygon points="9.4 0 4.2 6.3 2.4 4.5 9.2 0 9.1 0 2.4 4.5 2.3 4.5 2.3 4.5 4.1 6.3 4.2 6.4 4.2 6.3 9.5 0 9.4 0" style="fill:url(#radial-gradient-95)"/><polygon points="25.6 4.8 22 3.1 23.2 1 25.6 4.2 25.6 4.1 23.2 1 23.2 0.9 23.2 1 22 3.1 22 3.1 22 3.1 25.6 4.8 25.6 4.8" style="fill:url(#radial-gradient-96)"/><polygon points="25.6 5.2 21.5 1 25.6 2.9 25.6 2.9 21.6 0.9 21.3 0.8 21.5 1 25.6 5.3 25.6 5.2" style="fill:url(#radial-gradient-97)"/><polygon points="25.3 0 25.2 0 24.1 2.6 24.1 2.6 24.1 2.6 25.6 4.6 25.6 4.6 24.1 2.6 25.3 0" style="fill:url(#radial-gradient-98)"/><polygon points="25.4 0 25.6 0.8 25.6 0.7 25.4 0 25.4 0" style="fill:url(#radial-gradient-99)"/><path d="M4.6,2.2l.9.6L4.6,4.9V2.2m-.1,0h0V4.9l.9-2.1h0l-.9-.5Z" style="fill:url(#radial-gradient-100)"/><polygon points="6.3 6 0 1.6 0 1.7 6.3 6 0 4.5 0 4.6 6.3 6 6.5 6.1 6.3 6" style="fill:url(#radial-gradient-101)"/><path d="M4.9,5a.4.4,0,0,1-.4.4c-.2,0-.3-.2-.3-.4s.1-.4.3-.4A.4.4,0,0,1,4.9,5Z" style="fill:url(#radial-gradient-102)"/><path d="M6.8,6a.4.4,0,0,1-.4.4c-.2,0-.3-.2-.3-.4s.1-.4.3-.4A.4.4,0,0,1,6.8,6Z" style="fill:url(#radial-gradient-103)"/><path d="M7.4,4.2a.4.4,0,0,1-.4.4c-.2,0-.3-.2-.3-.4s.1-.4.3-.4A.4.4,0,0,1,7.4,4.2Z" style="fill:url(#radial-gradient-104)"/><path d="M5.9,3.6a.4.4,0,0,1-.4.4c-.2,0-.3-.2-.3-.4a.3.3,0,0,1,.3-.3C5.7,3.3,5.9,3.4,5.9,3.6Z" style="fill:url(#radial-gradient-105)"/><path d="M4.9,2.2a.3.3,0,0,1-.3.3c-.2,0-.4-.1-.4-.3s.2-.3.4-.3A.3.3,0,0,1,4.9,2.2Z" style="fill:url(#radial-gradient-106)"/><path d="M8.7,0,9,.2,9.3,0Z" style="fill:url(#radial-gradient-107)"/><path d="M25.2,0h0Z" style="fill:url(#radial-gradient-108)"/><path d="M25.6,5.3v0Z" style="fill:url(#radial-gradient-109)"/><path d="M23.1,4.1c0,.2-.2.3-.4.3a.3.3,0,1,1,0-.6C22.9,3.8,23.1,3.9,23.1,4.1Z" style="fill:url(#radial-gradient-110)"/><path d="M20.5,4.7a.3.3,0,0,1-.3.3.3.3,0,1,1,0-.6A.3.3,0,0,1,20.5,4.7Z" style="fill:url(#radial-gradient-111)"/><path d="M17.6,5.7a.3.3,0,0,1-.3.3.5.5,0,0,1-.3-.3.4.4,0,0,1,.3-.4C17.5,5.3,17.6,5.5,17.6,5.7Z" style="fill:url(#radial-gradient-112)"/><path d="M15.7,4.6a.3.3,0,0,1-.3.3.3.3,0,0,1-.3-.3.3.3,0,0,1,.3-.3A.3.3,0,0,1,15.7,4.6Z" style="fill:url(#radial-gradient-113)"/><path d="M13.1,4a.3.3,0,0,1-.3.3c-.2,0-.4-.1-.4-.3a.4.4,0,0,1,.4-.3A.5.5,0,0,1,13.1,4Z" style="fill:url(#radial-gradient-114)"/><path d="M17.8,2.9a.3.3,0,1,1-.6,0c0-.2.1-.4.3-.4S17.8,2.7,17.8,2.9Z" style="fill:url(#radial-gradient-115)"/><path d="M15.5,8.1a.3.3,0,0,1-.3.3.3.3,0,0,1-.3-.3l.3-.3A.3.3,0,0,1,15.5,8.1Z" style="fill:url(#radial-gradient-116)"/><path d="M11.4,6.5a.4.4,0,0,1-.3.4.4.4,0,0,1-.4-.4.4.4,0,0,1,.4-.3Z" style="fill:url(#radial-gradient-117)"/><path d="M8.1,6.1c0,.2-.2.3-.4.3a.3.3,0,0,1-.3-.3.5.5,0,0,1,.3-.3A.4.4,0,0,1,8.1,6.1Z" style="fill:url(#radial-gradient-118)"/><path d="M9.2,4.8a.5.5,0,0,1-.3.3.3.3,0,0,1-.3-.3c0-.2.1-.4.3-.4A.4.4,0,0,1,9.2,4.8Z" style="fill:url(#radial-gradient-119)"/><path d="M6.9,7.5a.3.3,0,0,1-.3.3c-.2,0-.4-.1-.4-.3s.2-.3.4-.3A.3.3,0,0,1,6.9,7.5Z" style="fill:url(#radial-gradient-120)"/><path d="M0,5.9H0v.6H0a.3.3,0,0,0,.3-.3A.3.3,0,0,0,0,5.9Z" style="fill:url(#radial-gradient-121)"/><path d="M10.7.9h-.3l.2-.2C10.7.7,10.7.8,10.7.9Z" style="fill:url(#radial-gradient-122)"/></g></g></svg>