<?xml version="1.0" encoding="UTF-8"?>
<svg id="_レイヤー_1" data-name="レイヤー 1" xmlns="http://www.w3.org/2000/svg" viewBox="0 0 312.68 113">
  <defs>
    <style>
      .cls-1 {
        fill: #fff;
      }

      .cls-2 {
        fill: #eb6c1b;
      }

      .cls-3 {
        fill: #2953a4;
      }

      .cls-4 {
        fill: #231815;
      }
    </style>
  </defs>
  <g>
    <g>
      <rect class="cls-1" x="64.11" y=".5" width="188" height="112"/>
      <path class="cls-4" d="M252.61,113H63.61V0H252.61V113Zm-188-1H251.61V1H64.61V112Z"/>
    </g>
    <g>
      <polygon class="cls-1" points="158.11 76 250.11 1 66.11 1 158.11 76"/>
      <path class="cls-4" d="M158.11,76.65L64.7,.5H251.51l-1.09,.89-92.32,75.26ZM67.51,1.5l90.6,73.85L248.71,1.5H67.51Z"/>
    </g>
  </g>
  <g>
    <path class="cls-4" d="M86.92,95.36c-.16-.73-.38-1.43-.62-2.06l-1.05-2.6h-7.03l-1.05,2.6c-.3,.77-.48,1.35-.62,2.06h-2.1c.4-.67,.54-.97,1.09-2.32l4.52-11.13c.38-.95,.54-1.41,.65-1.87h2.04c.08,.38,.18,.65,.69,1.87l4.52,11.13c.5,1.21,.77,1.79,1.07,2.32h-2.08Zm-4.76-12.7c-.06-.16-.06-.18-.44-1.29-.1,.3-.18,.52-.22,.67-.12,.32-.18,.54-.22,.62l-2.58,6.65h6.07l-2.6-6.65Z"/>
    <path class="cls-4" d="M98.83,94.05c0-.22,0-.36,.06-.89-1.01,1.65-2.26,2.4-4.07,2.4-1.45,0-2.58-.52-3.23-1.49-.36-.58-.56-1.37-.56-2.34v-4.98c0-.91-.04-1.61-.14-2.26h1.81c-.1,.71-.14,1.39-.14,2.28v4.7c0,1.79,.87,2.8,2.44,2.8,1.15,0,2.1-.5,2.9-1.59,.52-.71,.75-1.21,.93-2.02v-3.89c0-.87-.04-1.57-.14-2.28h1.79c-.1,.71-.14,1.35-.14,2.28v6.31c0,.91,.04,1.47,.16,2.28h-1.67v-1.31Z"/>
    <path class="cls-4" d="M106.65,81.49c-.1,.65-.14,1.37-.14,2.24v.77h.97c.93,0,1.35-.02,2.06-.12v1.53c-.65-.1-1.15-.12-2.06-.12h-.97v7.01c0,.58,.08,.89,.26,1.07,.22,.22,.56,.34,.99,.34,.52,0,.93-.12,1.59-.52l.44,1.41c-.83,.34-1.45,.46-2.28,.46-.89,0-1.57-.22-1.98-.62-.4-.4-.56-.99-.56-1.94v-7.22h-.81c-.69,0-1.15,.04-1.81,.12v-1.53c.56,.1,.97,.12,1.81,.12h.81v-.77c0-.81-.04-1.57-.14-2.24h1.81Z"/>
    <path class="cls-4" d="M111.17,89.94c0-3.49,2.1-5.7,5.38-5.7s5.36,2.22,5.36,5.68-2.1,5.7-5.34,5.7-5.4-2.2-5.4-5.68Zm1.55-.04c0,2.74,1.47,4.41,3.83,4.41s3.81-1.67,3.81-4.39-1.45-4.41-3.77-4.41-3.87,1.67-3.87,4.39Z"/>
    <path class="cls-4" d="M124.47,95.36c.1-.73,.14-1.33,.14-2.28v-6.31c0-1.01-.04-1.55-.14-2.28h1.63v1.11c0,.1-.02,.34-.04,.73,.18-.34,.36-.58,.77-1.01,.69-.69,1.67-1.05,2.84-1.05s2,.34,2.6,1.03c.3,.32,.42,.56,.62,1.17,.95-1.55,2.04-2.2,3.73-2.2,1.33,0,2.34,.42,2.94,1.23,.48,.65,.69,1.43,.69,2.62v4.98c0,1.01,.04,1.55,.14,2.26h-1.81c.12-.75,.14-1.21,.14-2.28v-4.76c0-1.92-.71-2.74-2.32-2.74-1.01,0-1.96,.54-2.54,1.47-.38,.58-.67,1.47-.67,2.08v3.97c0,1.01,.04,1.57,.14,2.26h-1.81c.1-.73,.14-1.25,.14-2.28v-4.76c0-1.77-.81-2.74-2.26-2.74-1.05,0-2.02,.56-2.64,1.53-.36,.54-.67,1.49-.67,2.02v3.95c0,.93,.04,1.47,.14,2.28h-1.77Z"/>
    <path class="cls-4" d="M150.62,93.93c-.79,.71-1.17,.97-1.85,1.23-.69,.26-1.41,.4-2.1,.4-2.22,0-3.57-1.15-3.57-3.06,0-1.61,1.01-2.78,2.88-3.31,1.19-.34,2.16-.46,4.64-.52v-1.17c0-1.37-.87-2.08-2.54-2.08-1.11,0-1.94,.28-2.5,.87-.26,.28-.42,.56-.62,1.17l-1.57-.34c.36-.93,.62-1.35,1.13-1.79,.83-.77,2.04-1.15,3.55-1.15,2.66,0,4.03,1.13,4.03,3.31v5.66c0,.91,.04,1.41,.16,2.22h-1.63v-1.43Zm0-4.07c-2.4,.06-3.55,.2-4.45,.58-1.03,.42-1.53,1.11-1.53,2.08,0,1.11,.83,1.81,2.14,1.81,1.17,0,2.44-.56,3.23-1.43,.46-.5,.62-.93,.62-1.73v-1.31Z"/>
    <path class="cls-4" d="M158.32,81.49c-.1,.65-.14,1.37-.14,2.24v.77h.97c.93,0,1.35-.02,2.06-.12v1.53c-.65-.1-1.15-.12-2.06-.12h-.97v7.01c0,.58,.08,.89,.26,1.07,.22,.22,.56,.34,.99,.34,.52,0,.93-.12,1.59-.52l.44,1.41c-.83,.34-1.45,.46-2.28,.46-.89,0-1.57-.22-1.98-.62-.4-.4-.56-.99-.56-1.94v-7.22h-.81c-.69,0-1.15,.04-1.81,.12v-1.53c.56,.1,.97,.12,1.81,.12h.81v-.77c0-.81-.04-1.57-.14-2.24h1.81Z"/>
    <path class="cls-4" d="M165.28,80.04v1.79h-1.96v-1.79h1.96Zm-.08,4.45c-.1,.71-.14,1.27-.14,2.28v6.31c0,.93,.04,1.49,.14,2.28h-1.81c.1-.87,.14-1.43,.14-2.28v-6.31c0-.97-.04-1.57-.14-2.28h1.81Z"/>
    <path class="cls-4" d="M167.84,89.94c0-3.49,2.1-5.7,5.38-5.7s5.36,2.22,5.36,5.68-2.1,5.7-5.34,5.7-5.4-2.2-5.4-5.68Zm1.55-.04c0,2.74,1.47,4.41,3.83,4.41s3.81-1.67,3.81-4.39-1.45-4.41-3.77-4.41-3.87,1.67-3.87,4.39Z"/>
    <path class="cls-4" d="M181.14,95.36c.12-.77,.16-1.31,.16-2.28v-6.31c0-.91-.04-1.47-.16-2.28h1.67v1.37c0,.24,0,.4-.06,.87,.95-1.65,2.26-2.44,4.07-2.44,1.45,0,2.58,.52,3.23,1.51,.38,.58,.56,1.33,.56,2.32v4.98c0,1.03,.04,1.59,.14,2.26h-1.81c.1-.79,.14-1.39,.14-2.28v-4.7c0-1.81-.87-2.78-2.46-2.78-1.13,0-2.04,.5-2.88,1.59-.52,.69-.77,1.19-.93,2v3.89c0,.89,.04,1.49,.14,2.28h-1.81Z"/>
    <path class="cls-4" d="M203.27,84.25c-.3-.65-.52-1.27-.91-2.5,.06,.87,.14,2.12,.14,2.6v8.63c0,1.07,.04,1.69,.16,2.38h-1.83c.12-.75,.16-1.33,.16-2.38v-10.54c0-1.01-.04-1.65-.16-2.4h2.34c.12,.6,.36,1.33,.67,2l4.98,11.11,4.96-11.11c.34-.79,.56-1.41,.69-2h2.32c-.12,.77-.16,1.35-.16,2.4v10.54c0,1.11,.04,1.65,.16,2.38h-1.83c.12-.69,.16-1.41,.16-2.38v-8.75c0-.56,.06-1.65,.14-2.48-.2,.83-.48,1.63-.87,2.46l-4.11,9.05c-.4,.91-.61,1.43-.77,2.1h-1.43c-.1-.52-.34-1.21-.75-2.12l-4.05-8.99Z"/>
    <path class="cls-4" d="M227.14,93.93c-.79,.71-1.17,.97-1.85,1.23-.69,.26-1.41,.4-2.1,.4-2.22,0-3.57-1.15-3.57-3.06,0-1.61,1.01-2.78,2.88-3.31,1.19-.34,2.16-.46,4.64-.52v-1.17c0-1.37-.87-2.08-2.54-2.08-1.11,0-1.94,.28-2.5,.87-.26,.28-.42,.56-.62,1.17l-1.57-.34c.36-.93,.62-1.35,1.13-1.79,.83-.77,2.04-1.15,3.55-1.15,2.66,0,4.03,1.13,4.03,3.31v5.66c0,.91,.04,1.41,.16,2.22h-1.63v-1.43Zm0-4.07c-2.4,.06-3.55,.2-4.46,.58-1.03,.42-1.53,1.11-1.53,2.08,0,1.11,.83,1.81,2.14,1.81,1.17,0,2.44-.56,3.23-1.43,.46-.5,.62-.93,.62-1.73v-1.31Z"/>
    <path class="cls-4" d="M233.69,80.04v1.79h-1.96v-1.79h1.96Zm-.08,4.45c-.1,.71-.14,1.27-.14,2.28v6.31c0,.93,.04,1.49,.14,2.28h-1.81c.1-.87,.14-1.43,.14-2.28v-6.31c0-.97-.04-1.57-.14-2.28h1.81Z"/>
    <path class="cls-4" d="M238.57,80.04c-.1,.73-.14,1.27-.14,2.28v10.78c0,.91,.04,1.45,.14,2.26h-1.81c.1-.73,.14-1.35,.14-2.26v-10.8c0-.99-.04-1.53-.14-2.26h1.81Z"/>
  </g>
  <g>
    <g>
      <path class="cls-1" d="M23.73,70.72c-7.65,0-13.87-2.53-17.98-7.32C2.09,59.02,0,52.41,0,45.25c0-10,4.23-18.06,11.6-22.11,3.32-1.9,7.35-2.83,12.29-2.83,6.03,0,11.39,2.04,15.09,5.74,2.11,2.17,3.28,4.13,4.51,7.53,.27,.75,.21,1.59-.16,2.3-.38,.71-1.04,1.22-1.82,1.42l-8.92,2.22c-.23,.06-.46,.08-.69,.08-1.18,0-2.27-.74-2.68-1.9-.76-2.19-1.28-2.65-2.04-3.15-.72-.49-1.74-.96-4.15-.96-2.14,0-4.11,.76-5.41,2.1-1.91,2-2.89,5.24-2.89,9.63s.99,7.8,2.78,9.84c1.34,1.53,3.47,2.31,6.31,2.31,2.1,0,3.78-.31,5.45-1.06v-2.83c-2.46,0-3.38,.05-4.81,.24-.12,.02-.25,.02-.37,.02-.68,0-1.35-.25-1.87-.7-.61-.54-.97-1.32-.97-2.13v-7.97c0-.82,.35-1.6,.97-2.13,.52-.45,1.18-.7,1.87-.7,.13,0,.25,0,.38,.03,1.79,.24,2.84,.29,6.22,.29h3.48c2.34,0,4.12-.04,6.27-.25,.09,0,.18-.01,.27-.01,.76,0,1.5,.31,2.04,.86,.6,.62,.89,1.48,.77,2.34-.23,1.74-.35,3.22-.35,6.49v5.75c0,3.34,.05,4.73,.34,6.9,.15,1.12-.37,2.22-1.34,2.81-3.64,2.21-5.99,3.25-9.3,4.12-2.81,.76-6.16,1.2-9.16,1.2Z"/>
      <path class="cls-1" d="M64.47,70.88c-11.72,0-19.3-7.66-19.3-19.51s7.78-19.51,19.35-19.51,19.3,7.62,19.3,19.4-7.78,19.61-19.35,19.61Zm.11-26.7c-4.65,0-5.34,4.44-5.34,7.09s.69,7.19,5.29,7.19c4.33,0,5.24-3.82,5.24-7.03s-.9-7.24-5.19-7.24Z"/>
      <path class="cls-1" d="M103.57,70.88c-11.72,0-19.3-7.66-19.3-19.51s7.78-19.51,19.35-19.51,19.3,7.62,19.3,19.4-7.78,19.61-19.35,19.61Zm.11-26.7c-4.65,0-5.34,4.44-5.34,7.09s.69,7.19,5.29,7.19c4.33,0,5.24-3.82,5.24-7.03s-.9-7.24-5.19-7.24Z"/>
      <path class="cls-1" d="M140.99,70.67c-5.02,0-9.12-1.51-12.17-4.5-3.57-3.57-5.44-8.69-5.44-14.85,0-11.66,6.91-19.19,17.61-19.19,2.86,0,5.44,.53,7.82,1.63v-2.01c0-3.31-.1-5.14-.4-7.26-.11-.81,.13-1.63,.67-2.25,.54-.62,1.32-.97,2.14-.97h9.02c.82,0,1.59,.35,2.13,.96,.54,.61,.79,1.43,.68,2.24-.29,2.23-.4,4.19-.4,7.23v27.6c0,3.18,.09,4.9,.4,7.35,.1,.81-.15,1.62-.69,2.23s-1.31,.96-2.12,.96h-8.6c-.86,0-1.64-.39-2.16-1-2.39,1.27-5.12,1.84-8.5,1.84Zm1.42-26.12c-3.63,0-4.92,3.67-4.92,6.82,0,2.44,.66,4.46,1.8,5.53,.8,.77,2.16,1.29,3.34,1.29,1.45,0,3.1-.57,4.03-1.4,1.21-1.1,2-3.28,2-5.53,0-4.14-2.39-6.72-6.24-6.72Z"/>
      <path class="cls-1" d="M226.89,69.82c-.82,0-1.59-.35-2.13-.97s-.79-1.43-.68-2.24c.3-2.28,.4-4.06,.4-7.59v-6.07l-3.08,7.7c-1.06,2.76-1.89,5.43-2.1,6.77-.22,1.38-1.4,2.4-2.8,2.4h-7.7c-1.41,0-2.6-1.03-2.8-2.42-.17-1.12-.66-3.22-2.1-6.8l-3.03-7.72v6.14c0,3.65,.1,5.62,.39,7.55,.12,.82-.12,1.65-.66,2.27-.54,.63-1.32,.98-2.15,.98h-8.81c-.82,0-1.6-.36-2.14-.98-.54-.62-.78-1.44-.67-2.26,.29-2.03,.39-4.01,.39-7.57v-26.91c0-3.41-.12-5.69-.39-7.62-.12-.81,.13-1.64,.67-2.26,.54-.62,1.32-.98,2.14-.98h11.71c1.39,0,2.58,1.01,2.8,2.38,.29,1.76,.88,3.81,1.8,6.25l6.73,17.63,6.7-17.63c.95-2.42,1.5-4.34,1.8-6.24,.22-1.38,1.41-2.39,2.8-2.39h11.71c.81,0,1.59,.35,2.12,.96s.79,1.42,.69,2.23c-.3,2.42-.4,4.29-.4,7.67v26.91c0,3.79,.1,5.69,.39,7.53,.13,.82-.11,1.65-.64,2.28-.54,.63-1.33,.99-2.16,.99h-8.81Z"/>
      <path class="cls-1" d="M255.13,70.4c-4.46,0-7.8-1.05-10.22-3.2-2.53-2.12-3.96-5.33-3.96-8.98,0-4.78,2.46-8.6,6.92-10.99l-3.75-.62c-.83-.14-1.56-.64-1.99-1.36s-.51-1.61-.22-2.4c1.27-3.5,2.54-5.38,4.89-7.19,3.15-2.45,7.44-3.65,13.13-3.65s10.09,1.29,12.98,4.06c2.38,2.24,3.36,5.02,3.36,9.6v14.3c0,3.03,.11,4.51,.35,6.7,.09,.8-.17,1.6-.71,2.2-.54,.6-1.31,.94-2.11,.94h-8.55c-.85,0-1.61-.37-2.13-.96-2.37,1.08-4.86,1.54-8,1.54Zm-.08-12.08s.35,.29,1.56,.29c1.62,0,3.54-.66,4.67-1.61,.58-.5,.88-.91,1.02-1.35-2.54,.16-4.05,.42-5.59,.9-1.7,.52-1.7,1.13-1.7,1.46,0,.22,.04,.3,.04,.3h0Zm4.83-14.4c-1.8,0-2.99,.44-3.28,.66-.07,.05-.14,.1-.21,.16,1.51-.2,3.17-.32,5.78-.42-.29-.22-.93-.4-2.29-.4Z"/>
      <path class="cls-1" d="M282.57,69.82c-.81,0-1.58-.35-2.12-.95s-.79-1.41-.69-2.22c.32-2.63,.4-4.15,.4-7.05v-16.46c0-3.17-.1-5-.39-6.98-.12-.81,.12-1.64,.66-2.26,.54-.62,1.32-.98,2.14-.98h9.34c.83,0,1.62,.36,2.16,.99,.54,.63,.77,1.46,.64,2.28-.29,1.81-.39,3.64-.39,7v16.36c0,3.08,.11,5.06,.39,7.04,.12,.81-.13,1.64-.67,2.26-.54,.62-1.32,.98-2.14,.98h-9.34Z"/>
      <path class="cls-1" d="M300.61,69.82c-.82,0-1.6-.35-2.14-.97-.54-.62-.78-1.44-.67-2.25,.28-2.05,.4-3.47,.4-7V31.48c0-3.31-.1-5.06-.39-6.96-.13-.82,.11-1.65,.65-2.28,.54-.63,1.32-.99,2.15-.99h9.23c.81,0,1.59,.35,2.12,.96s.79,1.42,.69,2.23c-.26,2.05-.35,3.89-.35,7.04v28.12c0,2.81,.09,4.6,.35,7.09,.08,.8-.17,1.6-.71,2.2-.54,.6-1.3,.94-2.11,.94h-9.23Z"/>
      <g>
        <path class="cls-1" d="M280.1,36.25c-.34,0-.68-.05-1-.16-.88-.29-1.6-.95-1.96-1.82l-2.84-6.84c-.34-.83-.32-1.76,.05-2.57,.37-.81,1.08-1.43,1.93-1.7l1.46-.47c.25-.56,.6-1.22,1.08-1.97,.15-.23,.31-.47,.47-.69,.25-.35,.46-.66,.57-.89,.35-.73,.39-1.92,.1-3.19-.42-1.83-.65-3.13-.04-4.39,.82-1.7,2.55-2.75,4.52-2.75,.15,0,.3,0,.45,.02,1.1,.08,2.19,.46,3.15,1.08,1.17,.76,2,1.81,2.39,3.03,.29,.89,.45,1.86,.49,2.85,.52,0,1.04,.09,1.54,.25,1.37,.44,2.56,1.49,3.08,2.72,.2,.47,.3,1,.32,1.59,.12,.12,.23,.24,.34,.37,.56,.68,1.12,1.85,.71,3.64,.36,.75,.51,1.58,.43,2.43-.07,.73-.3,1.4-.55,1.96,.12,.97-.03,1.98-.47,2.87-.86,1.77-2.84,2.56-4.43,2.56-.05,0-.1,0-.15,0-1.24,.49-2.98,1.1-4.53,1.38-.44,.08-.91,.12-1.38,.12-.23,0-.46,0-.7-.03-.89-.07-1.72-.26-2.39-.46l-.96,.59c-.51,.31-1.09,.47-1.68,.47Z"/>
        <path class="cls-1" d="M280.32,35.35c-.29,0-.59-.05-.87-.14-.79-.26-1.43-.84-1.75-1.61l-2.52-6.08c-.3-.73-.29-1.56,.05-2.27,.33-.72,.95-1.27,1.7-1.51l1.4-.45c.23-.58,.6-1.31,1.15-2.17,.15-.23,.31-.47,.47-.69,.25-.36,.48-.69,.62-.98,.22-.45,.34-1,.36-1.64,.02-.63-.05-1.32-.21-2.03-.1-.46-.22-.97-.29-1.43-.15-.95-.13-1.61,.09-2.2,.03-.09,.07-.19,.12-.28,.7-1.44,2.17-2.33,3.86-2.33,.13,0,.26,0,.39,.02,1.84,.14,4.16,1.33,4.9,3.61,.34,1.07,.49,2.24,.46,3.41,.04,0,.09-.01,.13-.02h-.04c.17-.02,.4-.04,.61-.04,.45,0,.89,.07,1.32,.21,0,0,.01,0,.01,0,1.17,.38,2.21,1.29,2.65,2.32,.09,.21,.29,.7,.26,1.63,.18,.16,.35,.33,.51,.52,.7,.85,.86,1.94,.5,3.26,.38,.68,.55,1.47,.48,2.27-.07,.72-.32,1.4-.58,1.92,.16,.88,.04,1.83-.37,2.66-.54,1.11-1.59,1.64-2.17,1.85-.32,.12-.66,.18-.99,.18-.18,0-.36-.02-.53-.05-.09,.04-.18,.08-.27,.12-1.07,.43-2.98,1.14-4.62,1.43-.4,.07-.82,.11-1.26,.11-.21,0-.42,0-.64-.02-.98-.07-1.89-.31-2.56-.53l-.88,.54c-.45,.28-.96,.42-1.48,.42Z"/>
      </g>
    </g>
    <g>
      <path class="cls-3" d="M29.43,50.74c-2.69,0-3.75,.05-5.33,.26v-7.97c1.95,.26,3.11,.32,6.6,.32h3.48c2.53,0,4.38-.05,6.54-.26-.26,2-.37,3.64-.37,6.86v5.75c0,3.43,.05,4.96,.37,7.28-3.48,2.11-5.54,3.01-8.55,3.8-2.53,.69-5.65,1.11-8.44,1.11-6.81,0-12.29-2.22-15.83-6.33-3.22-3.85-5.07-9.81-5.07-16.3,0-8.97,3.69-16.09,10.13-19.63,2.95-1.69,6.6-2.48,10.92-2.48,5.33,0,9.92,1.74,13.09,4.91,1.79,1.85,2.74,3.43,3.85,6.49l-8.92,2.22c-.84-2.43-1.64-3.59-3.17-4.59-1.48-1-3.22-1.42-5.7-1.42-2.9,0-5.59,1.06-7.44,2.96-2.43,2.53-3.69,6.44-3.69,11.61s1.21,9.13,3.48,11.71c1.9,2.16,4.75,3.27,8.44,3.27,3.17,0,5.65-.63,8.28-2.16v-7.39h-2.69Z"/>
      <path class="cls-4" d="M48.01,51.37c0-10.18,6.44-16.67,16.52-16.67s16.46,6.44,16.46,16.57-6.54,16.78-16.52,16.78-16.46-6.49-16.46-16.67Zm8.39-.11c0,6.23,3.06,10.03,8.13,10.03s8.07-3.69,8.07-9.87-2.95-10.08-8.02-10.08-8.18,3.75-8.18,9.92Z"/>
      <path class="cls-4" d="M87.11,51.37c0-10.18,6.44-16.67,16.52-16.67s16.46,6.44,16.46,16.57-6.54,16.78-16.52,16.78-16.46-6.49-16.46-16.67Zm8.39-.11c0,6.23,3.06,10.03,8.13,10.03s8.07-3.69,8.07-9.87-2.96-10.08-8.02-10.08-8.18,3.75-8.18,9.92Z"/>
      <path class="cls-4" d="M151.64,65.03c0-.58,.05-.74,.11-1.58-2.85,3.11-5.96,4.38-10.76,4.38-4.27,0-7.65-1.21-10.18-3.69-3.01-3.01-4.59-7.44-4.59-12.82,0-10.08,5.7-16.36,14.77-16.36,2.85,0,5.28,.58,7.6,1.85,1.37,.74,2,1.27,3.17,2.53l-.05-.74c-.05-.74-.05-1.37-.05-2.37v-4.48c0-3.43-.11-5.38-.42-7.65h9.02c-.32,2.43-.42,4.54-.42,7.6v27.6c0,3.38,.11,5.17,.42,7.7h-8.6v-1.95Zm-9.23-23.32c-4.64,0-7.76,3.9-7.76,9.66,0,3.22,.95,5.96,2.69,7.6,1.32,1.27,3.38,2.06,5.28,2.06,2.16,0,4.48-.84,5.91-2.11,1.85-1.69,2.96-4.59,2.96-7.65,0-5.75-3.64-9.55-9.08-9.55Z"/>
      <path class="cls-2" d="M208.79,66.99c-.26-1.79-1-4.27-2.27-7.44l-6.44-16.41c-.63-1.64-1.37-4.06-2.48-8.02,.32,5.12,.42,7.23,.42,8.55v15.35c0,3.69,.11,5.86,.42,7.97h-8.81c.32-2.22,.42-4.38,.42-7.97v-26.91c0-3.32-.11-5.8-.42-8.02h11.71c.32,1.95,.95,4.17,1.95,6.81l9.39,24.59,9.34-24.59c1.06-2.69,1.64-4.8,1.95-6.81h11.71c-.32,2.53-.42,4.49-.42,8.02v26.91c0,3.96,.11,5.96,.42,7.97h-8.81c.32-2.37,.42-4.27,.42-7.97v-15.51c0-1.27,.11-3.38,.42-8.39q-.26,1-.84,3.32c-.26,.9-1.16,3.75-1.48,4.54l-6.65,16.62c-1.05,2.74-2,5.7-2.27,7.39h-7.7Z"/>
      <path class="cls-4" d="M265.26,64.24c-3.17,2.43-5.86,3.32-10.13,3.32-3.75,0-6.44-.79-8.34-2.48-1.95-1.64-3.01-4.06-3.01-6.86,0-5.12,3.59-8.71,10.13-10.18,3.06-.63,4.64-.79,11.34-1v-2.11c0-2.59-1.79-3.85-5.38-3.85-2.06,0-3.96,.47-4.96,1.21-.95,.69-1.42,1.42-2,2.9l-8.34-1.37c1.11-3.06,2.11-4.48,3.96-5.91,2.64-2.06,6.44-3.06,11.4-3.06s8.71,1.06,11.03,3.27c1.79,1.69,2.48,3.75,2.48,7.55v14.3c0,3.06,.11,4.64,.37,7.02h-8.55v-2.74Zm0-11.56c-4.8,.16-7.02,.42-9.39,1.16-2.43,.74-3.69,2.16-3.69,4.17,0,2.22,1.58,3.43,4.43,3.43,2.27,0,4.85-.9,6.49-2.27,1.53-1.32,2.16-2.64,2.16-4.48v-2.01Z"/>
      <path class="cls-4" d="M291.91,35.75c-.32,2.01-.42,3.96-.42,7.44v16.36c0,3.11,.11,5.22,.42,7.44h-9.34c.32-2.64,.42-4.27,.42-7.39v-16.46c0-3.22-.11-5.22-.42-7.39h9.34Z"/>
      <path class="cls-4" d="M309.85,24.09c-.26,2.11-.37,4.01-.37,7.39v28.12c0,3.01,.11,4.91,.37,7.39h-9.23c.32-2.32,.42-3.9,.42-7.39V31.48c0-3.43-.11-5.33-.42-7.39h9.23Z"/>
      <path class="cls-4" d="M280.1,34.13c-.11,0-.23-.02-.33-.05-.3-.1-.54-.32-.66-.61l-2.84-6.84c-.12-.28-.11-.59,.02-.86,.12-.27,.36-.48,.65-.57l2.43-.78c.15-.5,.5-1.37,1.25-2.53,.14-.21,.28-.43,.43-.63,.29-.42,.56-.8,.75-1.19,.77-1.6,.49-3.55,.25-4.58-.37-1.59-.48-2.4-.2-2.99,.47-.97,1.44-1.55,2.61-1.55,.09,0,.19,0,.28,.01,.74,.06,1.51,.32,2.16,.75,.76,.5,1.29,1.15,1.53,1.91,.34,1.04,.46,2.22,.37,3.4-.04,.45-.1,.88-.2,1.31,.66-.15,1.28-.27,1.67-.33,0,0,.11-.02,.11-.02,.03,0,.11-.01,.14-.01,.09-.02,.24-.03,.39-.03,.31,0,.61,.05,.92,.15,.79,.25,1.51,.87,1.79,1.53,.21,.5,.17,1.19,.07,1.76,.37,.19,.66,.43,.91,.73,.4,.48,.47,1.15,.21,2.05-.06,.19-.12,.38-.19,.54,.33,.37,.72,1,.64,1.92-.07,.74-.42,1.44-.68,1.87,.25,.7,.2,1.54-.14,2.23-.43,.9-1.6,1.37-2.52,1.37-.17,0-.33-.02-.49-.05-.09,.04-.18,.08-.26,.12-.97,.39-2.78,1.07-4.31,1.34-.32,.06-.66,.08-1.01,.08-.17,0-.35,0-.54-.02-1.01-.08-1.95-.35-2.56-.57-.03-.01-.21-.1-.24-.11l-1.83,1.13c-.17,.1-.37,.16-.56,.16Z"/>
      <path class="cls-1" d="M292.5,27.64h0c.22,.02,.51,.08,.79,.2,.21-.33,.5-.89,.55-1.38,.04-.41-.15-.69-.32-.86-.26-.16-.55-.33-.62-.36l-.66-.27c-.17-.07-.26-.25-.22-.43,.05-.18,.21-.29,.39-.27h0c.13,.01,.43,.05,.77,.17,.09-.21,.19-.46,.26-.7,.14-.49,.1-.69,.07-.72-.2-.24-.45-.4-.78-.51-.11-.04-.24-.06-.38-.08-.06-.01-.13-.02-.19-.03-.12-.02-.24-.04-.37-.05-.09-.01-.19-.02-.28-.04-.02,0-.04,0-.05-.01-.12,0-.24-.07-.31-.18-.1-.17-.04-.4,.13-.5,0,0,0,0,0,0,.17-.1,.44-.12,.63-.12,.08,0,.19,0,.3,.02,.1-.44,.19-1.11,.1-1.34-.1-.24-.48-.58-.91-.72,0,0,0,0,0,0-.16-.05-.3-.08-.46-.08-.09,0-.18,0-.29,.02,0,0-.02,0-.03,0-.02,0-.05,0-.08,.01,0,0,0,0,0,0-.53,.09-2.36,.42-3.45,.87l-1.11,.49c-.07,.03-.15,.04-.23,.02-.37-.22,.93-1.23,.93-1.23,.79-1.66,.95-3.8,.4-5.5-.31-.95-1.47-1.59-2.43-1.66-.06,0-.11,0-.17,0-.61,0-1.08,.27-1.31,.73,0,.02-.06,.18,.04,.79,.07,.41,.17,.88,.26,1.25,.22,.96,.31,1.89,.28,2.77-.04,1.03-.25,1.95-.64,2.75-.24,.5-.55,.94-.85,1.37-.14,.2-.28,.4-.41,.61-.97,1.51-1.14,2.41-1.15,2.45l-.03,.19c-.02,.14-.12,.25-.25,.29l-.19,.06s0,0,0,0l-2.45,.79,2.52,6.08,1.26-.77s.09-.06,.14-.09l.2-.12s-.16-.25-.18-.33c-.09-.28-.1-.53-.03-.54,.09,0,.33,.25,.66,.44,.1,.06,.37,.21,.93,.49,.53,.19,1.32,.42,2.16,.49,.14,.01,.29,.02,.42,.02,.27,0,.52-.02,.76-.06,1.45-.26,3.27-.96,3.99-1.25,.53-.23,1.36-.69,1.39-.71,.17-.1,.38-.05,.49,.11,.06,.09,.08,.19,.05,.29,.3-.11,.54-.28,.61-.44,.18-.38,.2-.85,.04-1.21-.09-.2-.28-.28-.6-.4-.05-.02-.1-.04-.15-.05-.03,0-.05-.02-.07-.03,0,0-.01,0-.02,0-.19-.04-.31-.22-.28-.41,.03-.2,.21-.34,.41-.31Z"/>
    </g>
  </g>
</svg>