<svg xmlns="http://www.w3.org/2000/svg" viewBox="0 0 389.3 60.11"><g id="Layer_2" data-name="Layer 2"><g id="Layer_1-2" data-name="Layer 1"><g id="Layer_2-2" data-name="Layer 2"><g id="Layer_1-2-2" data-name="Layer 1-2"><path d="M38.5,56.4,36.7,43.8H16.9l-7,12.6H0L29.6,6h9.8l8,50.4ZM33.1,16V13.6h-.2a21.52,21.52,0,0,1-1.6,3.8L20.6,36.7H35.7l-2.4-19A7.52,7.52,0,0,1,33.1,16Z" style="fill:#fff"/><path d="M82.7,28.9A13.06,13.06,0,0,0,79.4,27a12.5,12.5,0,0,0-4.4-.8,10.45,10.45,0,0,0-6.1,2,14.82,14.82,0,0,0-4.5,5.7,17.87,17.87,0,0,0-1.8,7.8c0,2.9.7,5.1,2,6.6a6.88,6.88,0,0,0,5.6,2.3,13.44,13.44,0,0,0,4.6-.9,20.12,20.12,0,0,0,4.4-2.2l-1.5,7.2a21.83,21.83,0,0,1-9.9,2.6c-4.3,0-7.6-1.3-10.1-3.9s-3.6-6.3-3.6-10.9a25.41,25.41,0,0,1,2.7-11.6,20.67,20.67,0,0,1,7.6-8.4,20.13,20.13,0,0,1,10.9-3,21.88,21.88,0,0,1,5.1.6,17.51,17.51,0,0,1,4,1.6Z" style="fill:#fff"/><path d="M118.6,29.3a10,10,0,0,1-6,9.5c-4.1,2.1-10.2,3.2-18.4,3.3v1.1a7.41,7.41,0,0,0,2.2,5.6,8.47,8.47,0,0,0,6.1,2.1,20.07,20.07,0,0,0,5.7-1,31.9,31.9,0,0,0,5.6-2.5l-1.4,7a24.61,24.61,0,0,1-11.7,2.9c-4.7,0-8.3-1.3-10.9-3.9s-4-6.3-4-11a25.38,25.38,0,0,1,2.7-11.5A20.84,20.84,0,0,1,96,22.6a18.16,18.16,0,0,1,10.4-3.1q5.7,0,9,2.7A8.59,8.59,0,0,1,118.6,29.3Zm-8.2.2a3.6,3.6,0,0,0-1.3-2.8,5.43,5.43,0,0,0-3.5-1.1,9.58,9.58,0,0,0-6.8,3.1,15.59,15.59,0,0,0-4,7.5c10.4,0,15.6-2.2,15.6-6.7Z" style="fill:#fff"/><path d="M130.6,57c-2.6,0-4.6-.6-6-1.9a7.41,7.41,0,0,1-2-5.5,56.85,56.85,0,0,1,1.3-8.5c.9-4.1,3.6-16.8,8.1-38h8.6l-8.5,40a29.87,29.87,0,0,0-.8,4.5c0,1.8,1,2.7,3.1,2.7a8.34,8.34,0,0,0,3.2-.6l-1.3,6.5A21.55,21.55,0,0,1,130.6,57Z" style="fill:#fff"/><path d="M151.3,57c-2.6,0-4.6-.6-5.9-1.9a7,7,0,0,1-2-5.5,46.08,46.08,0,0,1,1.3-8.5c.9-4.1,3.6-16.8,8.1-38h8.5l-8.5,40a25.38,25.38,0,0,0-.7,4.5q0,2.7,3,2.7a7.79,7.79,0,0,0,3.2-.6L157,56.2A20.7,20.7,0,0,1,151.3,57Z" style="fill:#fff"/><path d="M196.3,29.3a10,10,0,0,1-6,9.5c-4,2.1-10.2,3.2-18.4,3.3v1.1a7.3,7.3,0,0,0,2.1,5.6,8.47,8.47,0,0,0,6.1,2.1,20.07,20.07,0,0,0,5.7-1,28.66,28.66,0,0,0,5.6-2.5l-1.4,7a24.13,24.13,0,0,1-11.7,2.9c-4.7,0-8.3-1.3-10.9-3.9s-3.9-6.3-3.9-11a26.46,26.46,0,0,1,2.6-11.5,20.84,20.84,0,0,1,7.5-8.3,18.66,18.66,0,0,1,10.5-3.1c3.7,0,6.7.9,8.9,2.7A8.6,8.6,0,0,1,196.3,29.3Zm-8.2.2a3.29,3.29,0,0,0-1.3-2.8,5.2,5.2,0,0,0-3.5-1.1,9.72,9.72,0,0,0-6.8,3.1,14.7,14.7,0,0,0-3.9,7.5C182.9,36.2,188.1,34,188.1,29.5Z" style="fill:#fff"/><path d="M339.6,59.2h-8.7a28.62,28.62,0,0,1,.3-3.2,22.93,22.93,0,0,1,.4-3.6h-.2a26.08,26.08,0,0,1-3.8,4.7,12.25,12.25,0,0,1-3.4,2.2,11.71,11.71,0,0,1-4.3.8,9.29,9.29,0,0,1-7.9-3.7c-1.9-2.4-2.9-5.7-2.9-10A25.92,25.92,0,0,1,312.2,34a20.1,20.1,0,0,1,8.2-8.8,24.15,24.15,0,0,1,12-2.9A67.41,67.41,0,0,1,345.9,24l-5,23.5c-.3,1.6-.6,3.7-.9,6.1A45.7,45.7,0,0,0,339.6,59.2Zm-3.3-30a18,18,0,0,0-4.8-.5,12.37,12.37,0,0,0-7.1,2.1,15.16,15.16,0,0,0-4.9,6.3,22.51,22.51,0,0,0-1.8,8.9,9.22,9.22,0,0,0,1.3,5.4,4.51,4.51,0,0,0,4,1.9c2.5,0,4.8-1.3,6.8-3.9a26.51,26.51,0,0,0,4.4-10.5Z" style="fill:#fff"/><path d="M358.6,59.8a8.08,8.08,0,0,1-5.9-2,7,7,0,0,1-2-5.5,13.67,13.67,0,0,1,.4-3.6l5.2-25.5h8.5l-4.7,22.7a29.87,29.87,0,0,0-.8,4.5c0,1.8,1,2.7,3.1,2.7a8.34,8.34,0,0,0,3.2-.6L364.2,59A23.58,23.58,0,0,1,358.6,59.8ZM368.1,11a4.53,4.53,0,0,1-1.5,3.5,5.28,5.28,0,0,1-3.7,1.4,4.78,4.78,0,0,1-3.5-1.3,4,4,0,0,1-1.5-3.3,4.2,4.2,0,0,1,1.6-3.5,5.22,5.22,0,0,1,3.7-1.3,5.54,5.54,0,0,1,3.5,1.2A4.53,4.53,0,0,1,368.1,11Z" style="fill:#fff"/><path d="M379.3,59.8a8.08,8.08,0,0,1-5.9-2,6.88,6.88,0,0,1-2.1-5.4,49,49,0,0,1,1.4-8.5c.9-4.1,3.6-16.8,8.1-38h8.5l-8.5,40a25.38,25.38,0,0,0-.7,4.5q0,2.7,3,2.7a7.79,7.79,0,0,0,3.2-.6L385,59A20.7,20.7,0,0,1,379.3,59.8Z" style="fill:#fff"/><path d="M307.2,0H242.1a3.5,3.5,0,0,0-3.3,2.6l-.15.7-.25,1.1-14,54.8L236,59c3.6-14.1,7.1-28.1,10.7-42.1l15.2,27.3,4.2.6,28.8-29.7-10.4,44h13.4L309.6,5a2,2,0,0,0,.2-.6,2.55,2.55,0,0,1,.12-.67h0A2,2,0,0,1,310,3.5a2.6,2.6,0,0,0,.06-.56A2.9,2.9,0,0,0,307.2,0ZM291.7,5,266,31.5c-4.6-8.8-9.2-17.6-13.7-26.5l-.4-.6h40.4Z" style="fill:#fff"/><path d="M309.92,3.73c0,.22-.06.43-.12.67A2.55,2.55,0,0,1,309.92,3.73Z" style="fill:#fff"/><path d="M228.9,14.7H203.3a2.5,2.5,0,0,1,0-5h25.6a2.5,2.5,0,0,1,0,5Z" style="fill:#fff"/><path d="M225.3,28.7H213.5a2.5,2.5,0,0,1,0-5h11.8a2.5,2.5,0,0,1,0,5Z" style="fill:#fff"/><path d="M221.9,42.7h-3.1a2.5,2.5,0,0,1,0-5h3.1a2.5,2.5,0,0,1,0,5Z" style="fill:#fff"/></g></g></g></g></svg>