<svg xmlns="http://www.w3.org/2000/svg" viewBox="0 0 524.1 114.6"><g id="Layer_2" data-name="Layer 2"><g id="Layer_1-2" data-name="Layer 1"><g id="Layer_2-2" data-name="Layer 2"><g id="Layer_1-2-2" data-name="Layer 1-2"><path d="M39.7,51.9H11.6l-6,13.5H0L23,15h5.3l23,50.4H45.7Zm-2-4.3L25.6,20.5,13.5,47.6Z" style="fill:#fff"/><path d="M63.7,60.2C60,56.4,58.2,51,58.2,43.8V15h5.3V43.6c0,5.9,1.3,10.3,4,13.1s6.4,4.4,11.4,4.4,8.9-1.5,11.5-4.4,4-7.2,4-13.1V15h5.2V43.8c0,7.2-1.8,12.6-5.5,16.4s-8.7,5.6-15.2,5.6S67.3,63.9,63.7,60.2Z" style="fill:#fff"/><path d="M124.4,19.6H106.7V15h40.8v4.6H129.8V65.4h-5.4Z" style="fill:#fff"/><path d="M163.7,62.5a24.7,24.7,0,0,1-9.5-9.2,25.1,25.1,0,0,1-3.4-13.1,25.1,25.1,0,0,1,3.4-13.1,23.4,23.4,0,0,1,9.5-9.2,29.5,29.5,0,0,1,13.6-3.4,26.6,26.6,0,0,1,13.5,3.4,24.2,24.2,0,0,1,9.4,9.1,25.6,25.6,0,0,1,3.5,13.2,26.2,26.2,0,0,1-3.5,13.1,23.8,23.8,0,0,1-9.4,9.2,27.5,27.5,0,0,1-13.5,3.3A28.2,28.2,0,0,1,163.7,62.5Zm24.4-4.1a18.7,18.7,0,0,0,7.5-7.5,19.9,19.9,0,0,0,2.8-10.7,20.4,20.4,0,0,0-2.8-10.7,20,20,0,0,0-7.5-7.5,22.5,22.5,0,0,0-10.8-2.7A22.9,22.9,0,0,0,166.4,22a20.3,20.3,0,0,0-7.6,7.5A21.4,21.4,0,0,0,156,40.2a22.2,22.2,0,0,0,2.8,10.7,18.9,18.9,0,0,0,7.6,7.5,21.8,21.8,0,0,0,10.9,2.7,21.4,21.4,0,0,0,10.8-2.7Z" style="fill:#fff"/><path d="M268,15V65.4h-5.1V25.1L243.1,59h-2.5L220.8,25.3V65.4h-5.2V15H220l21.9,37.3L263.6,15Z" style="fill:#fff"/><path d="M316,51.9H287.9l-6,13.5h-5.6L299.4,15h5.2l23.1,50.4h-5.6Zm-1.9-4.3L302,20.5,289.9,47.6Z" style="fill:#fff"/><path d="M336,15h5.4V65.4H336Z" style="fill:#fff"/><path d="M357.8,15h5.3V60.8h28.2v4.6H357.8Z" style="fill:#fff"/><path d="M229.8,81.6l-7.1,21h-1.6l-6.5-18.8L208,102.6h-1.6l-7.1-21h1.6l6.4,18.9,6.6-18.9h1.4l6.6,18.9,6.4-18.9Z" style="fill:#fff"/><path d="M245.8,95.1H232.3a9,9,0,0,0,.9,3.3,6.4,6.4,0,0,0,2.4,2.2,7.6,7.6,0,0,0,3.3.8,7.2,7.2,0,0,0,2.9-.6,6.9,6.9,0,0,0,2.2-1.6l.8,1a6.7,6.7,0,0,1-2.5,1.9,9.7,9.7,0,0,1-3.4.6,8.7,8.7,0,0,1-4.2-1,7.5,7.5,0,0,1-2.8-2.8,8.1,8.1,0,0,1-1.1-4.1,9.9,9.9,0,0,1,1-4.1,8.4,8.4,0,0,1,2.7-2.9,7.9,7.9,0,0,1,7.7,0,7.7,7.7,0,0,1,2.6,2.8,8.6,8.6,0,0,1,1,4.1Zm-10.4-6.2a5.8,5.8,0,0,0-2.1,2,6.7,6.7,0,0,0-1,3.1h12a6.2,6.2,0,0,0-3-5.1,6.1,6.1,0,0,0-3-.8A6,6,0,0,0,235.4,88.9Z" style="fill:#fff"/><path d="M262.3,87.8a7.5,7.5,0,0,1,2.8,2.8,10.4,10.4,0,0,1,1,4.2,9.9,9.9,0,0,1-1,4.1,7.5,7.5,0,0,1-2.8,2.8,7.9,7.9,0,0,1-4,1,7.2,7.2,0,0,1-3.8-1,7,7,0,0,1-2.6-2.8v3.7h-1.4V80.3H252V90.5a6.8,6.8,0,0,1,2.6-2.7,6.9,6.9,0,0,1,3.7-1A9.1,9.1,0,0,1,262.3,87.8Zm-.8,12.7a5.4,5.4,0,0,0,2.2-2.3,7,7,0,0,0-2.2-9.2,7.6,7.6,0,0,0-3.3-.8,7.2,7.2,0,0,0-3.2.8,6.9,6.9,0,0,0-2.2,9.2,5.4,5.4,0,0,0,2.2,2.3,6.2,6.2,0,0,0,3.2.9A6.3,6.3,0,0,0,261.5,100.5Z" style="fill:#fff"/><path d="M290.2,87.8a8,8,0,0,1,3.8,7,8.3,8.3,0,0,1-1,4.1,7.6,7.6,0,0,1-6.7,3.8,7.2,7.2,0,0,1-3.8-1,6.2,6.2,0,0,1-2.6-2.7v9.4h-1.5V86.9h1.5v3.7a7.7,7.7,0,0,1,2.6-2.8,7.9,7.9,0,0,1,7.7,0Zm-.8,12.7a5.1,5.1,0,0,0,2.3-2.3,7.4,7.4,0,0,0,0-6.8,6.3,6.3,0,0,0-8.6-2.4,6.9,6.9,0,0,0-2.4,2.4,7.4,7.4,0,0,0,0,6.8,6.4,6.4,0,0,0,8.6,2.4Z" style="fill:#fff"/><path d="M298.7,80.3h1.5v22.3h-1.5Z" style="fill:#fff"/><path d="M316.3,88.3a5.9,5.9,0,0,1,1.5,4.4v9.9h-1.4V99.8a5.8,5.8,0,0,1-2.2,2.2,7.1,7.1,0,0,1-3.5.7,6,6,0,0,1-4.1-1.2,3.9,3.9,0,0,1-1.5-3.2,4.3,4.3,0,0,1,1.4-3.2,6.8,6.8,0,0,1,4.4-1.2h5.4V92.6a4.1,4.1,0,0,0-1.2-3.3,4.6,4.6,0,0,0-3.4-1.2,7.7,7.7,0,0,0-3,.6,7.2,7.2,0,0,0-2.4,1.4l-.8-1.1a9.7,9.7,0,0,1,2.8-1.6,10.3,10.3,0,0,1,3.5-.6A6.8,6.8,0,0,1,316.3,88.3Zm-2,12.3a5.2,5.2,0,0,0,2-2.6V95H311a5.2,5.2,0,0,0-3.4.9,2.6,2.6,0,0,0-1,2.3,3.2,3.2,0,0,0,1.1,2.4,5.2,5.2,0,0,0,3.2.9A6.7,6.7,0,0,0,314.3,100.6Z" style="fill:#fff"/><path d="M331.8,101.6a2.8,2.8,0,0,1-1.5.8,4.7,4.7,0,0,1-1.7.3,4.2,4.2,0,0,1-3.2-1.1,4.9,4.9,0,0,1-1.1-3.1V88.2h-2.9V86.9h2.9V83.5h1.5v3.4h5v1.3h-5V98.3a3.2,3.2,0,0,0,.7,2.3,2.7,2.7,0,0,0,2.2.8,3.5,3.5,0,0,0,2.4-.8Z" style="fill:#fff"/><path d="M337.7,84.7v2.2h5v1.3h-5v14.4h-1.5V88.2h-2.8V86.9h2.8V84.5a4.1,4.1,0,0,1,1.2-3.1,4.1,4.1,0,0,1,3.2-1.2,4.7,4.7,0,0,1,1.7.3,3.7,3.7,0,0,1,1.4.7l-.6,1.2a3.8,3.8,0,0,0-2.5-.9C338.7,81.5,337.7,82.6,337.7,84.7Z" style="fill:#fff"/><path d="M347.6,101.7a7.5,7.5,0,0,1-2.8-2.8,9.1,9.1,0,0,1,0-8.2,7.8,7.8,0,0,1,2.8-2.9,8.7,8.7,0,0,1,8,0,7.1,7.1,0,0,1,2.8,2.9,8,8,0,0,1,0,8.2,6.3,6.3,0,0,1-2.8,2.8A8.7,8.7,0,0,1,347.6,101.7Zm7.2-1.2a5.1,5.1,0,0,0,2.3-2.3,7.4,7.4,0,0,0,0-6.8,6.3,6.3,0,0,0-8.6-2.4,6.9,6.9,0,0,0-2.4,2.4,7.4,7.4,0,0,0,0,6.8,6.4,6.4,0,0,0,8.6,2.4Z" style="fill:#fff"/><path d="M367.8,87.7a7.8,7.8,0,0,1,3.7-.9v1.5h-.3a5.3,5.3,0,0,0-4.1,1.6,6.3,6.3,0,0,0-1.5,4.5v8.2h-1.5V86.9h1.4v3.5A6.1,6.1,0,0,1,367.8,87.7Z" style="fill:#fff"/><path d="M399.7,88.5a7.1,7.1,0,0,1,1.7,5v9.1h-1.5v-9a5.4,5.4,0,0,0-1.3-4,4.5,4.5,0,0,0-3.6-1.4,5.4,5.4,0,0,0-4.2,1.6,6.3,6.3,0,0,0-1.5,4.5v8.3h-1.5v-9a5.8,5.8,0,0,0-1.3-4,4.5,4.5,0,0,0-3.6-1.4,5.4,5.4,0,0,0-4.2,1.6,6.3,6.3,0,0,0-1.5,4.5v8.3h-1.5V86.9h1.4v3.4a5.8,5.8,0,0,1,2.3-2.6,7.8,7.8,0,0,1,3.7-.9,6.5,6.5,0,0,1,3.6,1,5.3,5.3,0,0,1,2.1,2.8,6.2,6.2,0,0,1,2.5-2.8,8.7,8.7,0,0,1,3.9-1A6.2,6.2,0,0,1,399.7,88.5Z" style="fill:#fff"/><path d="M487.5,56.5l6-.4-2.7,2.5-4.3.6c-2.4,6.9-5.9,11.9-10.3,15s-10.3,4.6-17.4,4.6q-7.1,0-10.5-1.2a16.6,16.6,0,0,1-6.1-4,7.1,7.1,0,0,1-1.2-9.7,12.3,12.3,0,0,1,4.2-3.3,18.4,18.4,0,0,1,6.5-2.1,45.7,45.7,0,0,1,5.2-.5l7.5-.2,6.5-.2,5.4-.3,8.1-.6c1.1-3.3,2.1-6.5,2.8-9.5s1.5-5.9,2-8.8a8,8,0,0,0,1.7-1.5c1.3-1.2,2.1-1.8,2.5-1.8a1.9,1.9,0,0,1,1,.5C493.8,40.5,491.5,47.5,487.5,56.5Zm-4.3,4.2.3-1.2-15.6,2-11.7,1.4c-3.2.3-5.6.7-7.4,1a12.1,12.1,0,0,0-3.7,1.1,5.5,5.5,0,0,0-1.6,1.8,21.1,21.1,0,0,0,7.4,2.2,52.5,52.5,0,0,0,7.9.6h4l4.2-.4,3.1-.5a25.6,25.6,0,0,0,7.7-2.4,18.5,18.5,0,0,0,3.7-2.5A7.3,7.3,0,0,0,483.2,60.7Zm-1.4-26a7.1,7.1,0,0,1,3.9,1.6,47,47,0,0,0,1.2,5.1,10.4,10.4,0,0,1-2.6,3.6c-2.8-2.8-5.4-4.2-7.9-4.4,1.7-2,3.5-4,5.4-5.9Z" style="fill:#ef3b39"/><path d="M408.8,57.7c.3,18.9,10.5,32.2,15.7,37.8a60.9,60.9,0,0,0,37.7,19,11.3,11.3,0,0,0,7.4-3.9c.9-1,2.3-2.8,1.9-5.1s-4.1-4.2-4.3-4.3c-4.3.1-18-.2-29.9-10A45.1,45.1,0,0,1,423,43.3c7.1-22.9,29.7-29.5,31.2-30,22-6,39,7.1,40.7,8.4,17.7,14.1,17.4,35.5,17.3,39.2-.8,20.8-14.7,33.4-18.5,36.8a55,55,0,0,1-27.4,13c-2.8-.9-5.2-.1-5.7,1.3a3,3,0,0,0,.5,2.4,58.4,58.4,0,0,0,55.8-29.2c11.7-20.9,5.9-41.4,5-44.5s-6.7-21.1-24.8-32.2A58.5,58.5,0,0,0,439,7C420.3,17.2,408.6,37.1,408.8,57.7Z" style="fill:#ea4435"/></g></g></g></g></svg>