<?xml version="1.0" encoding="UTF-8"?>
<svg id="_レイヤー_1" data-name="レイヤー 1" xmlns="http://www.w3.org/2000/svg" xmlns:xlink="http://www.w3.org/1999/xlink" viewBox="0 0 241.97 111.46">
  <defs>
    <style>
      .cls-1 {
        fill: #fff;
      }

      .cls-2 {
        fill: #2e3192;
      }

      .cls-2, .cls-3, .cls-4, .cls-5, .cls-6 {
        stroke-miterlimit: 10;
      }

      .cls-2, .cls-3, .cls-4, .cls-5, .cls-6, .cls-7 {
        stroke: #fff;
        stroke-width: 2px;
      }

      .cls-3 {
        fill: url(#_名称未設定グラデーション_2);
      }

      .cls-4 {
        fill: url(#_名称未設定グラデーション_2-2);
      }

      .cls-5 {
        fill: #e61f19;
      }

      .cls-6 {
        fill: #f15a24;
      }

      .cls-8 {
        fill: #231815;
      }
    </style>
    <linearGradient id="_名称未設定グラデーション_2" data-name="名称未設定グラデーション 2" x1="486.81" y1="814.91" x2="485.87" y2="814.65" gradientTransform="translate(-18727.83 31243.35) scale(38.79 -38.3)" gradientUnits="userSpaceOnUse">
      <stop offset="0" stop-color="#e51c26"/>
      <stop offset="1" stop-color="#2e7dc0"/>
    </linearGradient>
    <linearGradient id="_名称未設定グラデーション_2-2" data-name="名称未設定グラデーション 2" x1="486.39" y1="815.19" x2="485.58" y2="814.51" gradientTransform="translate(-18757.62 31113.33) scale(38.79 -38.14)" xlink:href="#_名称未設定グラデーション_2"/>
  </defs>
  <g>
    <g>
      <rect class="cls-1" x="51.39" y="40.93" width="150.73" height="70.52"/>
      <path class="cls-8" d="m202.52,111.04H50.98V39.89h151.53v71.15Zm-150.73-.63h149.93V40.52H51.79v69.89Z"/>
    </g>
    <g>
      <polygon class="cls-1" points="126.75 87.74 200.51 40.52 52.99 40.52 126.75 87.74"/>
      <path class="cls-8" d="m126.75,88.15L51.86,40.2h149.78l-.87.56-74.02,47.39ZM54.12,40.83l72.64,46.5,72.64-46.5H54.12Z"/>
    </g>
  </g>
  <g id="_グループ_232" data-name="グループ 232">
    <path id="_合体_3" data-name="合体 3" class="cls-3" d="m164.89,48.13v-17.81s11.68,0,11.68,0v29.34c-4.63-1.42-10.42-6.11-11.68-11.53Zm-47.49-14.05c-2.07-16.07,9.28-30.77,25.35-32.84,1.37-.18,2.74-.26,4.12-.24,2.01,0,4.01.2,5.97.6,7.58,1.54,14.26,5.96,18.64,12.34,1.07,1.57,1.99,3.24,2.74,4.98,1.55,3.6,2.35,7.48,2.34,11.4h-11.68c0-3.55-1.08-7.01-3.09-9.94-2.66-3.87-6.71-6.55-11.31-7.48-2.39-.48-4.86-.48-7.25,0-4.6.93-8.65,3.62-11.31,7.48-.65.95-1.21,1.96-1.66,3.02-.94,2.18-1.43,4.54-1.43,6.92h-11.44v3.76h0Z"/>
    <path id="_パス_39" data-name="パス 39" class="cls-5" d="m117.16,30.39h11.68v17.6c0,6.45-5.23,11.68-11.68,11.68h0v-29.27Z"/>
    <path id="_前面オブジェクトで型抜き_12" data-name="前面オブジェクトで型抜き 12" class="cls-4" d="m99.08,59.68c-16.3.08-29.59-13.04-29.71-29.34.35-16.4,13.94-29.42,30.34-29.06,16.04.35,28.94,13.37,29.07,29.47h-11.68v22.9c-5.19,3.93-11.52,6.04-18.02,6.03h0Zm0-47.14c-10.06.12-18.07,8.57-17.56,18.71.46,9.13,8.07,16.61,17.21,16.89,10.11.32,18.38-7.78,18.38-17.8-.07-9.89-8.14-17.85-18.02-17.8Z"/>
  </g>
  <g>
    <path class="cls-2" d="m23.61,97.73l-1.98-6.92h-9.41l-2.11,6.92H1.36l10.84-35.12h11.4l11.01,35.12h-11Zm-9.56-14.59h5.68l-2.84-10.19-2.84,10.19Z"/>
    <path class="cls-7" d="m63.88,71.56v26.17h-9.49v-4.3c-1.39,3.22-4.1,4.84-8.13,4.84-2.49,0-4.41-.69-5.78-2.07-1.36-1.38-2.05-3.36-2.05-5.93v-18.7h10.27v16.47c0,1.03.14,1.75.42,2.17.28.42.84.63,1.66.63.88,0,1.59-.31,2.14-.94.55-.63.82-1.51.82-2.64v-15.69h10.14Z"/>
    <path class="cls-7" d="m86.39,71.56v6.66h-5.22v9.65c0,1.32.25,2.11.75,2.35s1.01.37,1.54.37c.82,0,1.8-.15,2.93-.44v7.31c-2.02.39-4.01.59-5.97.59-3.16,0-5.48-.68-6.96-2.03-1.48-1.35-2.23-3.52-2.23-6.48l.03-3.06v-8.26h-3.91v-6.66h3.91l.15-8.52,9.75-.15v8.67h5.22Z"/>
    <path class="cls-7" d="m103.54,98.27c-4.34,0-7.79-1.35-10.34-4.05-2.56-2.7-3.83-5.87-3.83-9.51,0-3.91,1.33-7.17,4-9.78,2.67-2.61,6.14-3.91,10.41-3.91s7.77,1.29,10.38,3.86,3.92,5.8,3.92,9.67-1.33,7.17-3.98,9.79c-2.65,2.62-6.17,3.92-10.56,3.92Zm.15-6.23c1.6,0,2.57-.83,2.92-2.48.35-1.66.53-3.38.53-5.18,0-2.45-.25-4.22-.75-5.3-.5-1.08-1.39-1.62-2.68-1.62-1.18,0-2.05.56-2.6,1.67-.55,1.12-.82,2.95-.82,5.51,0,3,.28,4.99.85,5.96.57.97,1.42,1.45,2.55,1.45Z"/>
    <path class="cls-6" d="m175.68,62.61v35.12h-10.01v-25.11l-6.5,25.11h-6.84l-6.75-25.11v25.11h-8.08v-35.12h14.09l5.09,18.65,4.86-18.65h14.14Z"/>
    <path class="cls-7" d="m208.76,97.73h-9.78c-.24-1.11-.36-2.33-.36-3.65-1.85,2.8-4.66,4.19-8.41,4.19-3.09,0-5.4-.79-6.93-2.37s-2.3-3.39-2.3-5.43c0-2.76,1.26-5,3.77-6.7,2.51-1.71,6.97-2.73,13.37-3.07v-.59c0-1.15-.26-1.91-.78-2.29-.52-.38-1.29-.57-2.3-.57-2.37,0-3.69.95-3.96,2.86l-9.37-.87c1.34-5.47,5.89-8.21,13.66-8.21,2.11,0,4.05.21,5.81.63,1.77.42,3.16,1.08,4.19,1.97,1.03.89,1.72,1.84,2.07,2.83.35,1,.53,2.91.53,5.74v10.45c0,1.99.27,3.69.8,5.09Zm-10.65-12.25c-4.37.46-6.56,1.86-6.56,4.19,0,1.58.87,2.37,2.6,2.37,1.1,0,2.03-.33,2.8-.98s1.16-2.09,1.16-4.32v-1.26Z"/>
    <path class="cls-7" d="m223.5,71.56v26.17h-10.27v-26.17h10.27Z"/>
    <path class="cls-7" d="m240.97,62.61v35.12h-10.11v-35.12h10.11Z"/>
  </g>
  <g>
    <path class="cls-1" d="m224.89,60.19s-.03-.03-.05-.04c-.05-.03-.1-.06-.15-.09.12-.24.25-.56.34-.87.18-.6.15-1.01-.07-1.28-.26-.31-.59-.53-1.02-.68-.02,0-.04-.01-.06-.02.11-.43.27-1.29.08-1.74-.18-.43-.7-.86-1.24-1.04-.21-.07-.42-.1-.63-.1-.1,0-.21,0-.33.02-.01,0-.03,0-.04,0-.03,0-.06.01-.1.02-.51.09-1.63.29-2.58.59.26-.68.43-1.41.49-2.17.08-1-.02-1.98-.31-2.85-.18-.55-.57-1.03-1.14-1.4-.5-.33-1.1-.53-1.67-.58-.07,0-.14,0-.2,0-.81,0-1.48.39-1.8,1.05-.17.36-.06,1.06.23,2.31.23,1.02.51,2.97-.28,4.6-.19.4-.45.77-.72,1.16-.13.19-.26.38-.39.58-.91,1.42-1.11,2.3-1.14,2.47l-2.56.82c-.09.03-.16.09-.2.18-.04.08-.04.18,0,.27l2.59,6.25c.04.09.11.16.21.19.03.01.07.02.1.02.06,0,.12-.02.18-.05l1.49-.91s0,0,0,0c.15-.1.4-.25.49-.31.12.06.26.14.43.22.01,0,.02.01.04.02.52.19,1.32.42,2.17.49.15.01.3.02.44.02.28,0,.56-.02.81-.07,1.34-.24,2.94-.84,3.78-1.18,0,0,0,0,0,0,.13-.06.28-.13.43-.2,0,0,.01,0,.02,0,.15.05.31.08.49.08.63,0,1.45-.33,1.72-.88.26-.53.27-1.17.04-1.67-.02-.05-.05-.09-.07-.13.22-.31.64-1.02.71-1.71.07-.7-.3-1.16-.53-1.36Zm-1.44-.71s0,0,0,0c0,0,0,0,0,0Z"/>
    <path class="cls-1" d="m223.56,62.57h0c.2.02.46.07.72.18.19-.3.46-.81.5-1.26.04-.38-.13-.63-.29-.79-.24-.15-.5-.3-.57-.33l-.6-.24c-.16-.06-.24-.23-.2-.4.04-.16.19-.27.36-.25h0c.12.01.39.05.7.16.09-.19.18-.42.24-.64.13-.44.09-.63.06-.66-.18-.22-.41-.37-.71-.47-.1-.03-.22-.05-.35-.07-.06,0-.12-.02-.18-.03-.11-.02-.22-.03-.34-.05-.08,0-.17-.02-.26-.03-.02,0-.04,0-.05-.01-.11,0-.22-.06-.28-.17-.09-.16-.04-.36.12-.46,0,0,0,0,0,0,.16-.09.4-.11.58-.11.07,0,.17,0,.28.01.09-.4.18-1.01.09-1.22-.09-.22-.44-.53-.83-.66,0,0,0,0,0,0-.14-.05-.28-.07-.42-.07-.08,0-.16,0-.26.02,0,0-.02,0-.02,0-.02,0-.05,0-.07.01,0,0,0,0,0,0-.49.08-2.15.38-3.15.79l-1.02.44c-.07.03-.14.04-.21.02-.34-.2.85-1.13.85-1.13.72-1.51.86-3.47.36-5.02-.28-.86-1.35-1.45-2.22-1.52-.05,0-.1,0-.15,0-.55,0-.99.24-1.19.67,0,.02-.05.16.04.73.06.38.16.8.24,1.14.2.87.29,1.73.25,2.53-.04.94-.23,1.78-.58,2.51-.22.45-.5.86-.77,1.25-.13.18-.26.37-.38.55-.88,1.37-1.04,2.2-1.05,2.23l-.03.18c-.02.13-.11.23-.23.27l-.17.06s0,0,0,0l-2.24.72,2.3,5.55,1.15-.71s.08-.05.13-.08l.18-.11s-.14-.23-.17-.3c-.08-.25-.09-.49-.03-.49.08,0,.31.23.6.4.09.06.34.19.85.45.48.17,1.2.39,1.97.44.13.01.26.02.39.02.25,0,.48-.02.69-.06,1.32-.24,2.99-.87,3.65-1.14.49-.21,1.24-.63,1.27-.65.15-.09.35-.04.44.1.05.08.07.18.05.26.27-.1.49-.26.56-.4.17-.35.18-.78.03-1.1-.08-.18-.26-.25-.55-.36-.05-.02-.09-.03-.14-.05-.02,0-.04-.02-.06-.03,0,0-.01,0-.02,0-.17-.04-.29-.2-.26-.38.03-.18.19-.31.37-.28Z"/>
  </g>
  <path class="cls-8" d="m212.25,68.56c-.11,0-.22-.02-.33-.05-.29-.09-.52-.31-.64-.59l-2.59-6.25c-.11-.27-.1-.57.02-.84.12-.26.35-.47.63-.56l2.19-.71c.15-.47.46-1.25,1.13-2.3.13-.2.27-.4.41-.6.25-.36.49-.7.66-1.06.69-1.44.44-3.21.23-4.14-.34-1.47-.44-2.22-.17-2.77.44-.91,1.35-1.45,2.44-1.45.08,0,.17,0,.25,0,.69.05,1.4.3,2,.69.7.46,1.2,1.07,1.42,1.77.31.96.43,2.04.34,3.13-.03.38-.08.75-.16,1.11.57-.13,1.09-.22,1.43-.28l.22.68-.12-.7s.11-.01.14-.01c.08-.02.22-.02.36-.02.29,0,.57.04.85.14.73.24,1.41.81,1.67,1.43.19.45.17,1.05.08,1.6.32.18.58.39.8.66.57.68.29,1.62.2,1.93-.05.16-.1.32-.16.46.43.49.63,1.12.57,1.77-.06.67-.38,1.31-.61,1.71.22.65.17,1.42-.14,2.06-.41.84-1.5,1.28-2.36,1.28-.15,0-.3-.01-.44-.04-.08.04-.15.07-.22.1-.89.36-2.55.98-3.95,1.23-.29.05-.61.08-.93.08-.16,0-.33,0-.49-.02-.93-.07-1.79-.33-2.35-.53-.02,0-.08-.03-.1-.04l-.09-.05-1.64,1.01c-.16.1-.35.15-.55.15Z"/>
  <path class="cls-1" d="m223.56,62.57h0c.2.02.46.07.72.18.19-.3.46-.81.5-1.26.04-.38-.13-.63-.29-.79-.24-.15-.5-.3-.57-.33l-.6-.24c-.16-.06-.24-.23-.2-.4.04-.16.19-.27.36-.25h0c.12.01.39.05.7.16.09-.19.18-.42.24-.64.13-.44.09-.63.06-.66-.18-.22-.41-.37-.71-.47-.1-.03-.22-.05-.35-.07-.06,0-.12-.02-.18-.03-.11-.02-.22-.03-.34-.05-.08,0-.17-.02-.26-.03-.02,0-.04,0-.05-.01-.11,0-.22-.06-.28-.17-.09-.16-.04-.36.12-.46,0,0,0,0,0,0,.16-.09.4-.11.58-.11.07,0,.17,0,.28.01.09-.4.18-1.01.09-1.22-.09-.22-.44-.53-.83-.66,0,0,0,0,0,0-.14-.05-.28-.07-.42-.07-.08,0-.16,0-.26.02,0,0-.02,0-.02,0-.02,0-.05,0-.07.01,0,0,0,0,0,0-.49.08-2.15.38-3.15.79l-1.02.44c-.07.03-.14.04-.21.02-.34-.2.85-1.13.85-1.13.72-1.51.86-3.47.36-5.02-.28-.86-1.35-1.45-2.22-1.52-.05,0-.1,0-.15,0-.55,0-.99.24-1.19.67,0,.02-.05.16.04.73.06.38.16.8.24,1.14.2.87.29,1.73.25,2.53-.04.94-.23,1.78-.58,2.51-.22.45-.5.86-.77,1.25-.13.18-.26.37-.38.55-.88,1.37-1.04,2.2-1.05,2.23l-.03.18c-.02.13-.11.23-.23.27l-.17.06s0,0,0,0l-2.24.72,2.3,5.55,1.15-.71s.08-.05.13-.08l.18-.11s-.14-.23-.17-.3c-.08-.25-.09-.49-.03-.49.08,0,.31.23.6.4.09.06.34.19.85.45.48.17,1.2.39,1.97.44.13.01.26.02.39.02.25,0,.48-.02.69-.06,1.32-.24,2.99-.87,3.65-1.14.49-.21,1.24-.63,1.27-.65.15-.09.35-.04.44.1.05.08.07.18.05.26.27-.1.49-.26.56-.4.17-.35.18-.78.03-1.1-.08-.18-.26-.25-.55-.36-.05-.02-.09-.03-.14-.05-.02,0-.04-.02-.06-.03,0,0-.01,0-.02,0-.17-.04-.29-.2-.26-.38.03-.18.19-.31.37-.28Z"/>
  <g>
    <path d="m79.54,106.49l.6-.58c.6.49,1.42.81,2.3.81,1.08,0,1.7-.43,1.7-1.03,0-.7-.61-.9-1.4-1.18l-1.14-.42c-.78-.26-1.69-.72-1.69-1.69s1.08-1.74,2.58-1.74c.98,0,1.85.33,2.42.81l-.53.54c-.52-.38-1.12-.61-1.93-.61-.91,0-1.52.36-1.52.95,0,.63.73.86,1.4,1.08l1.1.41c.97.32,1.74.78,1.74,1.75,0,1.04-1.06,1.87-2.78,1.87-1.15,0-2.15-.38-2.85-.97Z"/>
    <path d="m89.71,103.15h-2.7v-.67h3.69v4.86h-1v-4.19Zm-.4-2.33c0-.38.34-.64.79-.64s.79.26.79.64-.34.64-.79.64-.79-.25-.79-.64Z"/>
    <path d="m93.83,102.48h.79l.08.64h.02c.3-.45.66-.76,1.33-.76.58,0,.94.28,1.1.84.34-.52.7-.84,1.37-.84.82,0,1.3.53,1.3,1.5v3.48h-.98v-3.42c0-.56-.19-.85-.62-.85-.41,0-.62.25-.94.75v3.52h-.91v-3.42c0-.56-.17-.85-.6-.85-.41,0-.67.25-.96.75v3.52h-.98v-4.86Z"/>
    <path d="m101.45,102.48h.82l.08.62h.04c.54-.43,1.31-.74,2.02-.74,1.57,0,2.41.97,2.41,2.48,0,1.65-1.25,2.62-2.65,2.62-.54,0-1.21-.23-1.74-.63h-.02l.05.92v1.64h-1v-6.92Zm4.34,2.36c0-1.07-.48-1.78-1.64-1.78-.52,0-1.12.22-1.7.72v2.42c.54.41,1.15.56,1.55.56,1.03,0,1.8-.72,1.8-1.92Z"/>
    <path d="m110.48,105.71v-4.82h-2.06v-.67h3.06v5.56c0,.7.46,1,1.15,1,.34,0,.7-.07,1.09-.22l.25.62c-.54.19-.92.29-1.56.29-1.25,0-1.93-.6-1.93-1.75Z"/>
    <path d="m115.55,104.9c0-1.58,1.42-2.54,2.97-2.54,1.68,0,2.66.91,2.66,2.28,0,.19-.02.37-.05.5h-4.93v-.64h4.34l-.25.23c0-1.15-.68-1.72-1.75-1.72s-2.02.68-2.02,1.89.98,1.9,2.28,1.9c.7,0,1.25-.18,1.78-.46l.36.54c-.58.32-1.32.58-2.25.58-1.75,0-3.14-.94-3.14-2.56Z"/>
    <path d="m129.93,106.49l.6-.58c.6.49,1.42.81,2.3.81,1.08,0,1.7-.43,1.7-1.03,0-.7-.61-.9-1.4-1.18l-1.14-.42c-.78-.26-1.69-.72-1.69-1.69s1.08-1.74,2.58-1.74c.98,0,1.85.33,2.42.81l-.53.54c-.52-.38-1.12-.61-1.93-.61-.91,0-1.52.36-1.52.95,0,.63.73.86,1.4,1.08l1.1.41c.97.32,1.74.78,1.74,1.75,0,1.04-1.06,1.87-2.78,1.87-1.15,0-2.15-.38-2.85-.97Z"/>
    <path d="m139.42,105l-2.64-4.22h1.07l1.18,1.94c.3.51.58,1.01.9,1.53h.05c.31-.52.62-1.02.92-1.53l1.14-1.94h1.03l-2.64,4.22v2.34h-1.01v-2.34Z"/>
    <path d="m144.33,106.49l.6-.58c.6.49,1.42.81,2.3.81,1.08,0,1.7-.43,1.7-1.03,0-.7-.61-.9-1.4-1.18l-1.14-.42c-.78-.26-1.69-.72-1.69-1.69s1.08-1.74,2.58-1.74c.98,0,1.85.33,2.42.81l-.53.54c-.52-.38-1.12-.61-1.93-.61-.91,0-1.52.36-1.52.95,0,.63.73.86,1.4,1.08l1.1.41c.97.32,1.74.78,1.74,1.75,0,1.04-1.06,1.87-2.78,1.87-1.15,0-2.15-.38-2.85-.97Z"/>
    <path d="m153.82,101.49h-2.6v-.71h6.21v.71h-2.6v5.86h-1.01v-5.86Z"/>
    <path d="m159.3,100.78h4.87v.71h-3.86v2.05h3.26v.71h-3.26v2.38h3.98v.71h-4.99v-6.57Z"/>
    <path d="m165.99,100.78h1.22l1.1,2.8.38,1.06h.05l.37-1.06,1.12-2.8h1.22v6.57h-.96v-3.28c0-.64.12-1.76.17-2.32h-.04l-.44,1.28-1.13,2.58h-.72l-1.1-2.58-.46-1.28h-.02c.07.56.17,1.68.17,2.32v3.28h-.94v-6.57Z"/>
  </g>
</svg>