<?xml version="1.0" encoding="UTF-8"?>
<svg id="Layer_2" data-name="Layer 2" xmlns="http://www.w3.org/2000/svg" viewBox="0 0 160 160">
  <defs>
    <style>
      .cls-1 {
        fill: #1d7dbd;
      }

      .cls-1, .cls-2, .cls-3 {
        stroke-width: 0px;
      }

      .cls-2 {
        fill-rule: evenodd;
      }

      .cls-2, .cls-3 {
        fill: #fff;
      }
    </style>
  </defs>
  <g id="Layer_1-2" data-name="Layer 1">
    <g>
      <rect class="cls-1" width="160" height="160"/>
      <g>
        <path class="cls-2" d="M35.41,81.43h-6.15c-.81,0-1.54.59-1.72,1.39l-1.43,6.48c-.26,1.1.81,2.16,1.9,2.16h18.45c1.54,0,2.89-1.13,3.11-2.67l1.5-9.19,1.17-7.21c.33-1.94-1.17-3.66-3.11-3.66h-17.75c-.88,0-1.61.62-1.76,1.46l-.15.99c-.18,1.06.66,2.05,1.76,2.05h5.05c2.12,0,3.73,1.94,3.33,3.99l-.22,1.76c-.29,1.61-1.5,2.49-3.15,2.49"/>
        <path class="cls-2" d="M21.39,87.72h-3.07c-.73,0-1.39.44-1.57,1.02l-.29.99c-.26.84.51,1.68,1.57,1.68h3.07c.73,0,1.39-.44,1.57-1.02l.29-.99c.26-.88-.51-1.68-1.57-1.68Z"/>
        <path class="cls-2" d="M22.56,81.46h-7.65c-.73,0-1.39.51-1.57,1.21l-.29,1.13c-.26.99.51,1.94,1.57,1.94h7.65c.73,0,1.39-.51,1.57-1.21l.29-1.13c.26-.95-.51-1.94-1.57-1.94Z"/>
        <path class="cls-2" d="M18.5,73.08h5.89c.73,0,1.39-.51,1.57-1.24l.29-1.17c.26-1.02-.51-2.01-1.57-2.01h-5.89c-.73,0-1.39.51-1.57,1.24l-.29,1.17c-.22,1.02.55,2.01,1.57,2.01Z"/>
        <path class="cls-2" d="M19.2,76.38l-.29,1.17c-.26,1.02.51,2.01,1.57,2.01h11.53c.73,0,1.39-.51,1.57-1.24l.29-1.17c.26-1.02-.51-2.01-1.57-2.01h-11.53c-.73,0-1.39.51-1.57,1.24Z"/>
        <path class="cls-3" d="M58.91,68.54h7.8c5.45,0,8.6,2.82,8.6,7.58s-3.18,7.65-8.6,7.65h-2.89v7.54h-4.9v-22.76ZM66.59,79.78c2.31,0,3.7-1.32,3.7-3.59s-1.39-3.59-3.7-3.59h-2.82v7.21h2.82v-.04Z"/>
        <path class="cls-3" d="M88.11,86.44h-8.89l-1.57,4.87h-5.12l8.12-22.76h6.44l8.12,22.76h-5.49l-1.61-4.87ZM86.91,82.82l-3.15-9.63h-.26l-3.15,9.63h6.55Z"/>
        <path class="cls-3" d="M97.67,82.71l-8.05-14.13h5.49l4.94,9.52h.29l5.05-9.52h5.16l-8.02,14.13v8.64h-4.87v-8.64Z"/>
        <path class="cls-3" d="M116.48,72.61h-6.37l2.27-4.03h15.37v4.03h-6.41v18.74h-4.87v-18.74Z"/>
        <path class="cls-3" d="M141.66,91.35l-4.39-7.54h-3.04v7.54h-4.87v-22.76h7.8c5.45,0,8.6,2.82,8.6,7.58,0,3.37-1.5,5.75-4.28,6.88l5.53,8.31h-5.34ZM134.23,79.78h2.82c2.31,0,3.7-1.35,3.7-3.62s-1.39-3.55-3.7-3.55h-2.82v7.17Z"/>
      </g>
    </g>
  </g>
</svg>