<?xml version="1.0" encoding="utf-8"?>
<!-- Generator: Adobe Illustrator 26.1.0, SVG Export Plug-In . SVG Version: 6.00 Build 0)  -->
<svg version="1.1" id="Layer_1" xmlns="http://www.w3.org/2000/svg" xmlns:xlink="http://www.w3.org/1999/xlink" x="0px" y="0px"
	 viewBox="0 0 24 24" style="enable-background:new 0 0 24 24;" xml:space="preserve">
<style type="text/css">
	.st0{fill-rule:evenodd;clip-rule:evenodd;fill:#FFFFFF;}
</style>
<path class="st0" d="M216.7-165.7c23.6-17.1,38.6-42.3,38.6-70.4c0-51.4-50-93.1-111.8-93.1S31.8-287.5,31.8-236.1
	c0,51.4,50,93.1,111.8,93.1c12.8,0,25.1-1.8,36.5-5.1l3.3-0.5c2.1,0,4.1,0.7,5.9,1.7l24.5,14.1l2.1,0.7c2.1,0,3.7-1.7,3.7-3.7
	l-0.6-2.7l-5-18.8l-0.4-2.4C213.6-162.1,214.8-164.3,216.7-165.7z M18.4-432c-74.1,0-134.1,50-134.1,111.8c0,33.7,18.1,64,46.3,84.5
	c2.3,1.6,3.8,4.3,3.8,7.3l-0.5,2.8l-6,22.5l-0.7,3.3c0,2.5,2,4.5,4.5,4.5l2.6-0.8l29.4-17c2.2-1.3,4.5-2.1,7.1-2.1l3.9,0.6
	c13.7,3.9,28.5,6.1,43.8,6.1l7.4-0.2c-2.9-8.7-4.5-17.9-4.5-27.4C21.3-292.4,76-338,143.6-338l7.3,0.2
	C140.8-391.2,85.3-432,18.4-432z M106.3-251c-8.2,0-14.9-6.7-14.9-14.9c0-8.2,6.7-14.9,14.9-14.9c8.2,0,14.9,6.7,14.9,14.9
	C121.2-257.6,114.6-251,106.3-251z M180.8-251c-8.2,0-14.9-6.7-14.9-14.9c0-8.2,6.7-14.9,14.9-14.9c8.2,0,14.9,6.7,14.9,14.9
	C195.7-257.6,189.1-251,180.8-251z M-26.3-338.1c-9.9,0-17.9-8-17.9-17.9c0-9.9,8-17.9,17.9-17.9s17.9,8,17.9,17.9
	C-8.4-346.1-16.4-338.1-26.3-338.1z M63.1-338.1c-9.9,0-17.9-8-17.9-17.9c0-9.9,8-17.9,17.9-17.9S81-365.9,81-356
	C81-346.1,73-338.1,63.1-338.1z"/>
</svg>
