<?xml version="1.0" encoding="utf-8"?>
<!-- Generator: Adobe Illustrator 26.1.0, SVG Export Plug-In . SVG Version: 6.00 Build 0)  -->
<svg version="1.1" id="Layer_1" xmlns="http://www.w3.org/2000/svg" xmlns:xlink="http://www.w3.org/1999/xlink" x="0px" y="0px"
	 viewBox="0 0 48 40" style="enable-background:new 0 0 48 40;" xml:space="preserve">
<style type="text/css">
	.st0{fill-rule:evenodd;clip-rule:evenodd;fill:#FFFFFF;}
</style>
<path class="st0" d="M173.4-278.8c-13.4,6.1-27.7,10.1-42.4,11.9c15.5-9.6,27.1-24.5,32.5-41.9c-14.5,8.8-30.3,15-46.9,18.4
	c-13.4-14.7-32.6-23.9-53.9-23.9c-40.8,0-73.8,33.9-73.8,75.7c0,5.9,0.6,11.7,1.9,17.2c-61.4-3.2-115.8-33.3-152.3-79.2
	c-6.6,11.6-10,24.8-10,38.1c0,26.3,13,49.4,32.8,63c-11.8-0.4-23.2-3.6-33.5-9.4v0.9c0,36.7,25.5,67.3,59.3,74.3
	c-6.3,1.8-12.9,2.7-19.5,2.7c-4.7,0-9.3-0.4-13.9-1.4c9.4,30.1,36.7,52,69,52.6c-25.3,20.3-57.1,32.4-91.7,32.4
	c-6,0-11.9-0.4-17.6-1c32.7,21.5,71.5,34,113.2,34c135.9,0,210.1-115.4,210.1-215.5c0-3.3-0.1-6.6-0.2-9.8
	C151.1-250.3,163.6-263.6,173.4-278.8"/>
</svg>
