<svg xmlns="http://www.w3.org/2000/svg" viewBox="0 0 201 201"><g id="Layer_2" data-name="Layer 2"><g id="Layer_1-2" data-name="Layer 1"><circle cx="100.5" cy="100.5" r="100.5" style="fill:#b3b3b3"/><path d="M142.4,43.3c-9.9-9.5-23.6-14.7-38.6-14.7-22.9,0-37,9.3-44.8,17.2-9.5,9.7-15,22.6-15,35.3,0,16.1,6.7,28.4,17.9,32.9a5.9,5.9,0,0,0,2.2.5,5,5,0,0,0,4.9-4l1.7-6.5c.8-3,.1-4.5-1.7-6.6-3.2-3.8-4.7-8.3-4.7-14.3,0-17.5,13-36.2,37.3-36.2,19.2,0,31.1,11,31.1,28.5,0,11.1-2.4,21.4-6.7,29-3,5.2-8.3,11.5-16.5,11.5a10.8,10.8,0,0,1-8.7-4,10,10,0,0,1-1.7-8.6c.9-3.7,2-7.5,3.2-11.1,2-6.7,4-13,4-18,0-8.6-5.3-14.4-13.2-14.4-10,0-17.8,10.1-17.8,23.1a34.5,34.5,0,0,0,2.4,13C76.4,101.2,69,133,67.5,139c-.8,3.5-5.7,31.1,2.5,33.3s17.4-24.4,18.2-27.5,3.1-11.8,4.5-17.5a28.3,28.3,0,0,0,18.6,7.1c13.1,0,24.9-5.9,33.2-16.6S157,92.9,157,77A47.2,47.2,0,0,0,142.4,43.3Z" style="fill:#fff"/></g></g></svg>