<svg xmlns="http://www.w3.org/2000/svg" viewBox="0 0 425.5 400.9">
  <g id="Layer_2" data-name="Layer 2">
    <g id="OBJECTS">
      <g>
        <path d="M228.4,16.1c-21.2-.2-149.1-2.2-152.9,33.5-3.6,34.1,46,21.6,46.5,36.8s-8.9,20.5-35.3,19.5c-11.5-.5-47.6,3.6-48.1,26.4S78.3,152,76.3,170.8c-1.2,21.4-31.8,26.1-43.8,31.7S-4.7,220.6.8,244.9c7.3,28.1,53.6,23.1,71,26.5,11.7,1.9,48.7,5.2,43.5,30.1-2.8,15-33.2,15.9-27.4,35.1s58.9,21.5,69.6,22.1c44.6,2.4,142.5,6.3,186.1-12.1,16-6.7,30.2-14.7,28.5-38.8-.8-21.4-12.4-24.6,7.1-41.2,12.4-10.6,36-9.8,34.6-40.9-.8-16.9-43.8-23.8-42.8-41.4,1.5-27.7,54.3-4.2,54.5-53.1.1-30.5-96-13.5-95-43.6-1.3-12.3,19.9-17.5,19-31.1C349.9,34.8,325.1,18.8,228.4,16.1Z" style="fill: #dff1ea"/>
        <path d="M144.6,237.5h-74a.8.8,0,0,1-.7-.5c-.8-3.5,3.3-6.3,6-5a3.6,3.6,0,0,1,4-2.7,6.5,6.5,0,0,1,3.7-8,6.2,6.2,0,0,1,7.8,2.1c1.1-5.4,5.7-10.1,11.4-10.5a12.7,12.7,0,0,1,8.8,2.7c2.4,2,3.2,4.2,3.8,6.9a6.9,6.9,0,0,1,8-2.8c3.3,1.1,3.7,4.4,3.6,7.5,2.6-2.2,5.8-3.3,9.3-1.2s3.5,4.5,3.6,7.5c2.4-1.4,4.8,0,5,3.2A.6.6,0,0,1,144.6,237.5Z" style="fill: #eaf9f3"/>
        <path d="M349.7,85.1c0,14.1,38.2,16.7,40.2,0S349.7,64,349.7,85.1Z" style="fill: #dff1ea"/>
        <path d="M40.9,301.9c0,14.1,47.4,16.8,49.1,0C92.1,281.2,40.9,277.2,40.9,301.9Z" style="fill: #dff1ea"/>
        <path d="M316.7,381.4c0,16.7,56.2,20,58.2,0C377.4,356.8,316.7,352.2,316.7,381.4Z" style="fill: #dff1ea"/>
        <path d="M36.9,86.1c0,9.2,26.1,11,27.1,0C65.1,72.6,36.9,70,36.9,86.1Z" style="fill: #dff1ea"/>
        <path d="M186.4,250c.8-3.9-5-7.5-9.5-6.1.8-2.6-.1-5.1-4-6.3a9.9,9.9,0,0,0-5.4,0c3.1-6.2.2-13.3-9.4-14.8s-22.1,3.6-24.2,11.9c-8.5-8.4-26.6,1.6-21.3,11.3-3.2-.6-6.6,1.3-6.8,4.1-3.4-1.2-6,2.2-3.9,5.2a.8.8,0,0,0,.7.3h89.5c.2-.1.3-.2.3-.4C193.4,252.2,189.7,249.5,186.4,250Z" style="fill: #fff"/>
        <path d="M187.3,316.4c.4-1.8-2.2-3.4-4.2-2.7.4-1.2,0-2.3-1.8-2.8a4.5,4.5,0,0,0-2.3,0c1.4-2.8.1-5.9-4.2-6.6s-9.8,1.6-10.7,5.3c-3.8-3.7-11.7.7-9.4,5a2.4,2.4,0,0,0-3,1.8,1.5,1.5,0,0,0-1.8,2.3h40c0-.1.1-.1.1-.2S188.8,316.1,187.3,316.4Z" style="fill: #fff"/>
        <path d="M346.1,156h55a.5.5,0,0,0,.6-.4,3.3,3.3,0,0,0-4.5-3.6,2.8,2.8,0,0,0-3-2.1,4.9,4.9,0,0,0-8.5-4.4,9.8,9.8,0,0,0-8.5-7.8,9.5,9.5,0,0,0-6.5,2,8.2,8.2,0,0,0-2.8,5.2,5.3,5.3,0,0,0-6-2.1c-2.5.8-2.8,3.3-2.7,5.6-2-1.7-4.3-2.5-6.9-.9s-2.6,3.3-2.7,5.6c-1.8-1.1-3.6,0-3.7,2.4C345.8,155.7,346,155.9,346.1,156Z" style="fill: #fff"/>
        <path d="M203.6,57.8h37.1c.2,0,.3-.1.4-.3a2.2,2.2,0,0,0-3-2.4,1.9,1.9,0,0,0-2-1.4,3.2,3.2,0,0,0-1.9-4,3,3,0,0,0-3.9,1,6.6,6.6,0,0,0-5.8-5.3,6.5,6.5,0,0,0-4.4,1.4,5.6,5.6,0,0,0-1.9,3.5,3.4,3.4,0,0,0-4-1.4c-1.7.5-1.9,2.2-1.8,3.7a3.9,3.9,0,0,0-4.7-.6,4.2,4.2,0,0,0-1.8,3.8c-1.2-.7-2.4,0-2.5,1.6S203.4,57.7,203.6,57.8Z" style="fill: #fff"/>
        <g>
          <path d="M291.1,378.5c0-.2,0-.3-.1-.4a.7.7,0,0,0-.6-.4l-27.9.5a.7.7,0,0,0-.7.7c.2,5.4-.3,10.9.6,16.3s6.3,5.3,10.5,5.6,13.1.5,16.2-2.4S291.3,383.7,291.1,378.5Z" style="fill: #82b7bc"/>
          <path d="M266.6,389a5.4,5.4,0,0,1-5.2-4,.6.6,0,0,1,.3-.6.5.5,0,0,1,.6.4c0,.1,1,4,5.6,3.2,3-.6,3.2-6.9,3.2-7a.4.4,0,0,1,.4-.4c.2-.1.4.1.5.3s.1.6.2,1,.9,3.9,2,4.9,4.7,1.4,6.3.6,2.6-3,2.5-5.2a3.4,3.4,0,0,1-.1-1,.4.4,0,0,1,.4-.4c.2-.1.4.1.5.3a3.4,3.4,0,0,0,.1,1c.3,2.3,1.7,4.3,3.4,4.8a3.5,3.5,0,0,0,3.8-1.6c.2-.2.4-.3.6-.1a.4.4,0,0,1,.1.6c-1.3,1.7-3,2.5-4.7,1.9a5.7,5.7,0,0,1-3.5-3.3c-.4,1.7-1.3,3.3-2.8,3.8s-5.4.7-7.1-.7a8.8,8.8,0,0,1-2-4.1c-.4,2.2-1.4,5-3.7,5.4Z" style="fill: #a3d0d8"/>
          <path d="M275.8,375.9c-3,0-13,.1-14.1,2.4s14.9,2.9,18,2.8C294.7,380.6,296.5,375.1,275.8,375.9Z" style="fill: #709da0"/>
          <path d="M275.8,375.3c-1.7,0-16-.3-14.7,3.6.6,1.9,3.6,2.1,5.2,2.3a78.1,78.1,0,0,0,10.8.5,60.8,60.8,0,0,0,9.5-.7c1.3-.3,4.4-.8,5-2.4,1.6-4.2-14.7-3.4-15.8-3.3s-.7,1.2,0,1.1a80.2,80.2,0,0,1,9.8.2c.6.1,6.2.9,4.4,2.1-3.5,2.2-9,1.8-12.9,1.9s-9.1.1-13.4-1.1c-2-.5-.6-1.7.7-2.1a23.4,23.4,0,0,1,4.5-.7q3.5-.3,6.9-.3A.6.6,0,0,0,275.8,375.3Z" style="fill: #a3d0d8"/>
          <g>
            <path d="M291.3,344.2c-.2,11.3-.6,22.6-.7,33.9a.4.4,0,1,0,.8,0c.2-11.3.6-22.6.8-33.9a.4.4,0,0,0-.9,0Z" style="fill: #82b7bc"/>
            <path d="M259.6,344c.3,11.4.5,22.9,1.7,34.3,0,.5.9.5.8,0-1.2-11.4-1.3-22.9-1.7-34.3a.4.4,0,1,0-.8,0Z" style="fill: #82b7bc"/>
            <path d="M275.1,345.9c.9,11.5-.3,23.1.7,34.7.1.5.9.5.9,0-1-11.6.2-23.2-.8-34.7,0-.5-.9-.5-.8,0Z" style="fill: #82b7bc"/>
          </g>
          <path d="M335.6,245.7c-3.6-9.2-10.2-18.3-20.7-20.2h-.3c-7.8-.8-12.3,6.9-15.1,12.9-4.9,10.7-7.1,22.7-9,34.2-3.8,22.7-7.7,47.5-1.1,70a1.5,1.5,0,0,0,2.7.3c7.1-10.9,21.8-14.6,31.2-23.3s14.8-22.5,16.4-35.4S340.5,258.1,335.6,245.7Z" style="fill: #a3d0d8"/>
          <path d="M258.2,282.3c-3.4-18.6-11.6-37.3-21-53.8a1.3,1.3,0,0,0-1.3-.7l-.7.2c-9.4,4.9-14.5,14.2-17.7,23.8s-5.2,22.9-3.6,33.7c2,14,9.9,26.3,20.3,35.9,8.6,7.8,19.2,12.9,26.8,21.8a1.5,1.5,0,0,0,2.5-1C263.3,322.2,261.9,302,258.2,282.3Z" style="fill: #bce0e8"/>
          <path d="M303.2,214.7c-8.4-4.5-18.1-5.3-27.4-3.5a1.5,1.5,0,0,0-1,.9c-5.5,7.9-6.4,19.1-7.2,28.4-1.3,14.6-.9,29.4-.3,44.1.9,19.7,2.6,39.5,5.1,59.2a1.5,1.5,0,0,0,1.5,1.4h17a1.4,1.4,0,0,0,1.2-.7c15.7-28.8,20.1-63.4,22.7-95.6.6-7.3,1.1-14.6,1.2-22C316.1,222.1,306.7,216.6,303.2,214.7Z" style="fill: #bce0e8"/>
          <path d="M279.7,216.9c-2.7-15.3-29.8-3.1-36.9,2.1s-8.4,9.5-8.9,16.9a198,198,0,0,0,1.6,36.9A179.2,179.2,0,0,0,248.7,322c2.1,4.7,4.4,9.3,6.9,13.9,1.1,2.1,3.6,8.6,6,9.3s8.5,0,12.3,0a1.2,1.2,0,0,0,1.3-1,.6.6,0,0,0,.1-.4c2.4-28,4.2-56,5.2-84C281,245.7,282.1,230.8,279.7,216.9Z" style="fill: #a3d0d8"/>
          <path d="M259.2,345.9a96.6,96.6,0,0,0,33.5,0c3.1-.6,1.8-4.8-1.4-4.2a91,91,0,0,1-30.8,0c-3.1-.6-4.4,3.6-1.3,4.2Z" style="fill: #82b7bc"/>
        </g>
        <g>
          <path d="M158,73.2h0c0-.1-.1-.2-.3-.2l-12.1.2a.3.3,0,0,0-.3.3,56.2,56.2,0,0,0,.3,7.1c.4,2.1,2.7,2.3,4.6,2.4s5.6.2,7-1S158.1,75.5,158,73.2Z" style="fill: #8ca8af"/>
          <path d="M147.4,77.8a2.2,2.2,0,0,1-2.2-1.8c0-.1,0-.2.1-.2a.2.2,0,0,1,.2.2,2.2,2.2,0,0,0,2.5,1.4c1.3-.3,1.4-3.1,1.4-3.1l.2-.2.2.2a.6.6,0,0,0,.1.4,4.4,4.4,0,0,0,.8,2.1,2.9,2.9,0,0,0,2.7.3,2.1,2.1,0,0,0,1.1-2.3v-.4a.2.2,0,0,1,.2-.2c.1,0,.1.1.2.2v.4a2.5,2.5,0,0,0,1.5,2.1,1.4,1.4,0,0,0,1.6-.7h.3a.2.2,0,0,1,0,.3,1.6,1.6,0,0,1-2,.8,2.6,2.6,0,0,1-1.5-1.4,2.5,2.5,0,0,1-1.2,1.7,3.4,3.4,0,0,1-3.1-.4,4.6,4.6,0,0,1-.9-1.7c-.1.9-.6,2.1-1.6,2.3Z" style="fill: #a9c0c9"/>
          <path d="M151.4,72.1c-1.3,0-5.6.1-6.1,1s6.4,1.3,7.8,1.3C159.6,74.1,160.4,71.8,151.4,72.1Z" style="fill: #6b7d7e"/>
          <path d="M151.4,71.8c-.7,0-6.9-.1-6.4,1.6s1.6.9,2.3,1a37,37,0,0,0,4.7.2l4.1-.3c.6-.1,1.9-.3,2.2-1s-6.4-1.5-6.9-1.5-.3.6,0,.5h4.2c.3.1,2.8.4,2,.9s-3.9.8-5.6.8a22.4,22.4,0,0,1-5.8-.4c-.9-.3-.3-.8.3-.9a6.3,6.3,0,0,1,1.9-.3l3-.2A.3.3,0,0,0,151.4,71.8Z" style="fill: #a9c0c9"/>
          <g>
            <path d="M158.1,58.4c0,4.9-.2,9.8-.3,14.7,0,.2.4.2.4,0l.3-14.7a.2.2,0,1,0-.4,0Z" style="fill: #8ca8af"/>
            <path d="M144.4,58.3c.1,4.9.2,9.9.7,14.8a.2.2,0,1,0,.4,0c-.5-4.9-.6-9.9-.7-14.8-.1-.2-.4-.2-.4,0Z" style="fill: #8ca8af"/>
            <path d="M151.1,59.1c.4,5-.1,10,.3,15a.2.2,0,1,0,.4,0c-.4-5,.1-10-.3-15-.1-.2-.4-.2-.4,0Z" style="fill: #8ca8af"/>
          </g>
          <path d="M177.3,15.7c-1.5-4-4.4-7.9-8.9-8.7h-.2c-3.4-.3-5.3,3.1-6.5,5.6-2.1,4.7-3.1,9.9-3.9,14.9-1.7,9.8-3.4,20.6-.5,30.3a.7.7,0,0,0,1.2.1c3.1-4.7,9.4-6.3,13.5-10.1s6.4-9.7,7.1-15.3A33.9,33.9,0,0,0,177.3,15.7Z" style="fill: #a9c0c9"/>
          <path d="M143.8,31.6c-1.5-8.1-5-16.2-9.1-23.3a.4.4,0,0,0-.6-.3h-.3c-4.1,2.1-6.3,6.2-7.7,10.3a34.6,34.6,0,0,0-1.5,14.6c.9,6.1,4.3,11.4,8.8,15.6s8.3,5.6,11.6,9.5a.7.7,0,0,0,1.1-.5A150.2,150.2,0,0,0,143.8,31.6Z" style="fill: #c7e0e8"/>
          <path d="M163.3,2.3A17.5,17.5,0,0,0,151.4.8a.4.4,0,0,0-.4.3c-2.4,3.5-2.8,8.3-3.1,12.3a152.4,152.4,0,0,0-.2,19.1c.4,8.6,1.1,17.2,2.2,25.7a.7.7,0,0,0,.7.6h7.3a.6.6,0,0,0,.6-.3c6.8-12.5,8.7-27.5,9.8-41.4.3-3.2.5-6.3.5-9.5S164.8,3.1,163.3,2.3Z" style="fill: #c7e0e8"/>
          <path d="M153.1,3.2c-1.2-6.6-12.9-1.3-16,1s-3.6,4-3.8,7.2a96,96,0,0,0,.6,16.1,78.5,78.5,0,0,0,5.8,21.2c.9,2.1,1.9,4.1,2.9,6.1s1.6,3.7,2.7,4,3.7,0,5.3,0a.7.7,0,0,0,.6-.4v-.2c1-12.1,1.8-24.3,2.2-36.4C153.7,15.7,154.1,9.3,153.1,3.2Z" style="fill: #a9c0c9"/>
          <path d="M144.2,59.1a41.5,41.5,0,0,0,14.5,0c1.4-.2.8-2.1-.6-1.8a39.6,39.6,0,0,1-13.3,0c-1.4-.3-1.9,1.5-.6,1.8Z" style="fill: #8ca8af"/>
        </g>
        <g>
          <path d="M158.5,114.9a7.6,7.6,0,0,1,1.7,5.4v9.8h-3.9v-9.7a4.3,4.3,0,0,0-.9-3,3.5,3.5,0,0,0-2.6-1.1,4,4,0,0,0-2.9,1.1,4.7,4.7,0,0,0-1.1,3.3v9.4H145V113.3h3.7v2.1a5.5,5.5,0,0,1,2.2-1.8,6.7,6.7,0,0,1,3-.6A5.9,5.9,0,0,1,158.5,114.9Z" style="fill: #b5b5b5"/>
          <path d="M166.3,129.5a7.5,7.5,0,0,1-2.6-2.4,6.7,6.7,0,0,1-.9-3.4,6.8,6.8,0,0,1,.9-3.5,6.4,6.4,0,0,1,2.6-2.3,7.4,7.4,0,0,1,3.6-.9,7.5,7.5,0,0,1,3.7.9,5.6,5.6,0,0,1,2.5,2.3,6.8,6.8,0,0,1,.9,3.5,6.7,6.7,0,0,1-.9,3.4,6.4,6.4,0,0,1-2.5,2.4,8.7,8.7,0,0,1-3.7.8A8.6,8.6,0,0,1,166.3,129.5Zm6-3.2a3.7,3.7,0,0,0,.9-2.6,3.6,3.6,0,0,0-.9-2.6,3,3,0,0,0-2.4-1,2.9,2.9,0,0,0-2.3,1,3.3,3.3,0,0,0-1,2.6,3.4,3.4,0,0,0,1,2.6,3.2,3.2,0,0,0,2.3.9A3.2,3.2,0,0,0,172.3,126.3Z" style="fill: #b5b5b5"/>
          <path d="M181.7,150.3c1.6,1.7,2.4,4.3,2.4,7.5v15.5h-5.8V158a5.4,5.4,0,0,0-1.4-4,4.8,4.8,0,0,0-3.6-1.3,5.3,5.3,0,0,0-4,1.4,5.6,5.6,0,0,0-1.5,4.3v14.9H162V158a5.4,5.4,0,0,0-1.3-4,4.6,4.6,0,0,0-3.5-1.3,4.9,4.9,0,0,0-3.9,1.4,5.6,5.6,0,0,0-1.5,4.3v14.9h-5.9V148.1h5.7v3.1a7.9,7.9,0,0,1,3.1-2.6,9.9,9.9,0,0,1,4.4-.9,10.6,10.6,0,0,1,4.5.9,7.4,7.4,0,0,1,3,2.8,8.6,8.6,0,0,1,3.4-2.8,11.9,11.9,0,0,1,4.7-.9A9.4,9.4,0,0,1,181.7,150.3Z" style="fill: #fff"/>
          <path d="M209.2,154v19.3h-5.4v-2.2a7.3,7.3,0,0,1-6,2.5,10.3,10.3,0,0,1-5-1.2,9.1,9.1,0,0,1-3.5-3.5,11.2,11.2,0,0,1-1.2-5.3,10.8,10.8,0,0,1,1.2-5.2,9.1,9.1,0,0,1,3.5-3.5,10.3,10.3,0,0,1,5-1.2,7,7,0,0,1,5.7,2.3v-2Zm-6.9,13.5a5.3,5.3,0,0,0,1.4-3.9,5.6,5.6,0,0,0-1.4-3.9,5.2,5.2,0,0,0-3.6-1.4,4.8,4.8,0,0,0-3.5,1.4,5.2,5.2,0,0,0-1.4,3.9,4.9,4.9,0,0,0,1.4,3.9,4.5,4.5,0,0,0,3.5,1.5A4.9,4.9,0,0,0,202.3,167.5Z" style="fill: #fff"/>
          <path d="M214.6,150.4a3.2,3.2,0,0,1-.9-2.3,2.9,2.9,0,0,1,.9-2.2,3.7,3.7,0,0,1,2.6-.9,3.7,3.7,0,0,1,2.5.9,2.6,2.6,0,0,1,.9,2.1,3.2,3.2,0,0,1-.9,2.3,3.9,3.9,0,0,1-5.1.1Zm-.3,3.6H220v19.3h-5.7Z" style="fill: #fff"/>
          <path d="M227,171.9a6.7,6.7,0,0,1-1.8-5V146.6h5.6v20a2.9,2.9,0,0,0,.6,1.9,2.4,2.4,0,0,0,1.8.6h.9l.7-.2.2,4.3a7.1,7.1,0,0,1-2.9.5A7.3,7.3,0,0,1,227,171.9Z" style="fill: #fff"/>
          <path d="M248.4,148.1h5.8v20.5h12.7v4.7H248.4Z" style="fill: #fff"/>
          <path d="M270,150.4a3.2,3.2,0,0,1-.9-2.3,2.9,2.9,0,0,1,.9-2.2,3.7,3.7,0,0,1,2.6-.9,3.7,3.7,0,0,1,2.5.9,2.6,2.6,0,0,1,.9,2.1,3.2,3.2,0,0,1-.9,2.3,3.9,3.9,0,0,1-5.1.1Zm-.3,3.6h5.7v19.3h-5.7Z" style="fill: #fff"/>
          <path d="M282.4,173a11.8,11.8,0,0,1-3.7-1.5l1.9-4a11.1,11.1,0,0,0,3.1,1.3,11.3,11.3,0,0,0,3.6.6q3.6,0,3.6-1.8a1.2,1.2,0,0,0-1-1.2l-3-.6a23.9,23.9,0,0,1-3.9-.8,6.5,6.5,0,0,1-2.7-1.7,5,5,0,0,1-1.1-3.4,5.1,5.1,0,0,1,1-3.2,7,7,0,0,1,3.1-2.2,12.1,12.1,0,0,1,4.8-.8,18.4,18.4,0,0,1,4.1.4,9.7,9.7,0,0,1,3.4,1.3l-1.9,4a10.7,10.7,0,0,0-5.6-1.5,6.2,6.2,0,0,0-2.7.5c-.6.4-.9.8-.9,1.3a1.5,1.5,0,0,0,1,1.3l3.1.7a23.9,23.9,0,0,1,3.9.8,5.4,5.4,0,0,1,2.6,1.6,4.5,4.5,0,0,1,1.1,3.4,5.3,5.3,0,0,1-1,3.2,7.5,7.5,0,0,1-3.2,2.1,12.3,12.3,0,0,1-4.9.8A18.4,18.4,0,0,1,282.4,173Z" style="fill: #fff"/>
          <path d="M311.4,172.4a6.7,6.7,0,0,1-2.1.9,10.1,10.1,0,0,1-2.5.3,7.2,7.2,0,0,1-5.3-1.8,6.4,6.4,0,0,1-1.9-5.1v-17h5.6v4.7H310v4.3h-4.8v7.9a2.9,2.9,0,0,0,.6,1.9,2.4,2.4,0,0,0,1.8.6,3.9,3.9,0,0,0,2.3-.7Z" style="fill: #fff"/>
        </g>
      </g>
    </g>
  </g>
</svg>
