<?xml version="1.0" encoding="utf-8"?>
<!-- Generator: Adobe Illustrator 26.1.0, SVG Export Plug-In . SVG Version: 6.00 Build 0)  -->
<svg version="1.1" id="Layer_1" xmlns="http://www.w3.org/2000/svg" xmlns:xlink="http://www.w3.org/1999/xlink" x="0px" y="0px"
	 viewBox="0 0 48 34" style="enable-background:new 0 0 48 34;" xml:space="preserve">
<style type="text/css">
	.st0{fill-rule:evenodd;clip-rule:evenodd;fill:#FFFFFF;}
</style>
<path class="st0" d="M-87.8-94.7l0-119.8l114.4,60.1L-87.8-94.7z M163.5-235.3c0,0-4.1-29.4-16.8-42.3c-16.1-17-34.2-17.1-42.4-18.1
	C45-300-43.9-300-43.9-300h-0.2c0,0-88.9,0-148.2,4.3c-8.3,1-26.3,1.1-42.4,18c-12.7,13-16.8,42.3-16.8,42.3s-4.2,34.5-4.2,69v32.4
	c0,34.5,4.2,69,4.2,69s4.1,29.4,16.8,42.3c16.1,17,37.3,16.5,46.7,18.2C-154.2-1-44,0-44,0s89-0.1,148.3-4.5
	c8.3-1,26.3-1.1,42.4-18.1c12.7-12.9,16.8-42.3,16.8-42.3s4.2-34.5,4.2-69v-32.4C167.7-200.8,163.5-235.3,163.5-235.3z"/>
</svg>
