<?xml version="1.0" encoding="utf-8"?>
<!-- Generator: Adobe Illustrator 26.1.0, SVG Export Plug-In . SVG Version: 6.00 Build 0)  -->
<svg version="1.1" id="icons" xmlns="http://www.w3.org/2000/svg" xmlns:xlink="http://www.w3.org/1999/xlink" x="0px" y="0px"
	 viewBox="0 0 800 800" style="enable-background:new 0 0 800 800;" xml:space="preserve">
<style type="text/css">
	.st0{fill:#FFFFFF;}
</style>
<path class="st0" d="M497.6,314.2c-2-1-4-2.2-5.9-3.4c-5.6-3.7-10.6-8-15.2-12.9c-11.3-12.9-15.5-26.1-17.1-35.3h0.1
	c-1.3-7.6-0.8-12.6-0.7-12.6h-51.5v199.2c0,2.7,0,5.3-0.1,7.9c0,0.3,0,0.6,0,1c0,0.1,0,0.3,0,0.4c0,0,0,0.1,0,0.1
	c-1.1,14.5-9.4,27.5-22,34.7c-6.5,3.7-13.8,5.6-21.3,5.6c-24,0-43.5-19.6-43.5-43.7c0-24.2,19.5-43.7,43.5-43.7
	c4.5,0,9.1,0.7,13.4,2.1l0.1-52.5c-26.5-3.4-53.3,4.4-73.7,21.6c-8.9,7.7-16.3,16.9-22.1,27.2c-2.2,3.7-10.4,18.8-11.4,43.3
	c-0.6,13.9,3.5,28.3,5.5,34.2v0.1c1.2,3.5,6.1,15.4,14,25.5c6.4,8.1,13.9,15.2,22.3,21.1V534l0.1,0.1c24.9,16.9,52.6,15.8,52.6,15.8
	c4.8-0.2,20.8,0,39-8.6c20.2-9.6,31.7-23.8,31.7-23.8c7.3-8.5,13.2-18.2,17.3-28.7c4.7-12.3,6.2-27,6.2-32.8V350.3
	c0.6,0.4,8.9,5.9,8.9,5.9s12,7.7,30.7,12.7c13.4,3.6,31.5,4.3,31.5,4.3v-51.1C523.6,322.7,510.8,320.7,497.6,314.2z"/>
</svg>
