<?xml version="1.0" encoding="utf-8"?>
<!-- Generator: Adobe Illustrator 26.1.0, SVG Export Plug-In . SVG Version: 6.00 Build 0)  -->
<svg version="1.1" id="Layer_1" xmlns="http://www.w3.org/2000/svg" xmlns:xlink="http://www.w3.org/1999/xlink" x="0px" y="0px"
	 viewBox="0 0 44 40" style="enable-background:new 0 0 44 40;" xml:space="preserve">
<style type="text/css">
	.st0{fill-rule:evenodd;clip-rule:evenodd;fill:#FFFFFF;}
</style>
<path class="st0" d="M187-51.6h-72.9V-157c0-27.6-11.4-46.4-36.5-46.4c-19.2,0-29.9,12.7-34.8,25c-1.9,4.4-1.6,10.5-1.6,16.6v110.3
	h-72.3c0,0,0.9-186.8,0-203.8h72.3v32c4.3-14,27.4-33.9,64.2-33.9c45.7,0,81.6,29.3,81.6,92.4V-51.6z M-104.2-280.9h-0.5
	c-23.3,0-38.4-15.6-38.4-35.3c0-20.1,15.5-35.4,39.3-35.4c23.7,0,38.3,15.2,38.8,35.3C-64.9-296.5-80-280.9-104.2-280.9z
	 M-134.7-255.4h64.3v203.8h-64.3C-134.7-51.6-134.7-255.4-134.7-255.4z"/>
</svg>
