<?xml version="1.0" encoding="utf-8"?>
<!-- Generator: Adobe Illustrator 26.1.0, SVG Export Plug-In . SVG Version: 6.00 Build 0)  -->
<svg version="1.1" id="Layer_1" xmlns="http://www.w3.org/2000/svg" xmlns:xlink="http://www.w3.org/1999/xlink" x="0px" y="0px"
	 viewBox="0 0 958.2 980" style="enable-background:new 0 0 958.2 980;" xml:space="preserve">
<style type="text/css">
	.st0{fill:#FFFFFF;}
</style>
<g id="Layer_2_00000180360087298970428040000010691199128905903246_">
	<g id="Layer_1-2">
		<path class="st0" d="M549.7,486c-11.4-2.8-5.9-10.7-5.9-10.7s11.2-23.5-2.2-40.7c-16.6-21.2-56.8,2.7-56.8,2.7
			c-15.4,6.1-11.3-2.8-9.1-17.9c0-17.8-4.8-48-45.8-30.2c-41,17.8-76.1,80.8-76.1,80.8c-24.4,41.8-21.2,74-21.2,74
			c6.1,71.2,65.2,90.8,111.2,95.4c48.4,4.9,113.7-21.3,133.5-75.2C597.1,510.4,561.2,489,549.7,486z M447.4,619.3
			c-48,2.9-86.9-28-86.9-69s38.8-74,86.9-76.9s87,22.5,87,63.5C534.4,578,495.5,616.6,447.4,619.3z"/>
		<path class="st0" d="M437.8,500.5c-48.3,7.3-42.7,65.2-42.7,65.2s-0.5,18.3,12.9,27.7c28.3,19.6,57.4,7.7,72.1-16.6
			C494.8,552.5,486.2,493.4,437.8,500.5z M425.6,581.9c-9,1.3-16.3-5.3-16.3-15s6.5-19.7,15.5-20.9c10.4-1.3,17.1,6.4,17.1,16
			C441.9,571.7,434.6,580.5,425.6,581.9z M454.1,550.8c-3.1,2.9-6.8,2.5-8.4-1c-1.6-3.5-1-8.9,2.1-11.8c3.6-3.4,7.3-2.4,8.9,1
			C458.2,542.4,457.1,547.8,454.1,550.8z"/>
		<path class="st0" d="M573.2,460.9c3.9,0,7.2-3.7,7.7-8.5c0.1-0.4,0.1-0.7,0.1-1.1c5.9-67.9-43.5-56.2-43.5-56.2
			c-4.4,0-7.9,4.6-7.9,10.2s3.5,10.1,7.9,10.1c35.5-10,27.6,35.4,27.6,35.4C565.3,456.4,568.8,460.9,573.2,460.9z"/>
		<path class="st0" d="M567.5,342.4c-17.1-5.1-34.6-0.7-39.6,0.5c-0.4,0-0.7,0.5-1.1,0.6c-0.3,0.1-0.3,0.3-0.3,0.3
			c-4.8,1.8-8.4,7.5-8.4,14.3c0,8.1,5.1,14.7,11.5,14.7c0,0,6.2-1,10.4-3.2c4.2-2.1,39.5-1.6,57.1,36.2c9.6,27.6,4.2,46,3.6,49
			c0,0-2.3,7.2-2.3,14.2c0,8.1,5.1,13.3,11.5,13.3c5.3,0,9.8-0.9,11.1-12.4h0.1C640,389.3,598,351.5,567.5,342.4z"/>
	</g>
</g>
</svg>
