<?xml version="1.0" encoding="utf-8"?>
<!-- Generator: Adobe Illustrator 26.1.0, SVG Export Plug-In . SVG Version: 6.00 Build 0)  -->
<svg version="1.1" id="Layer_1" xmlns="http://www.w3.org/2000/svg" xmlns:xlink="http://www.w3.org/1999/xlink" x="0px" y="0px"
	 viewBox="0 0 1834.4 1716.9" style="enable-background:new 0 0 1834.4 1716.9;" xml:space="preserve">
<style type="text/css">
	.st0{fill-rule:evenodd;clip-rule:evenodd;fill:#FFFFFF;}
</style>
<g id="Layer_2_00000085210071804788788280000009556230920807598502_">
	<g id="Layer_1-2">
		<path class="st0" d="M640.5,634L640.5,634c-88.5,0-160.3,57.5-160.3,128.3c0,63.2,57,115.7,132.1,126.4h0c1.8,0.2,3.5,0.5,5.3,0.7
			c25.5,5.3,3.4,37.3,11.8,43.8C639,940.8,712,892,756.3,851c6.3-5.3,12.1-11.1,17.4-17.4l0.1-0.1c1.1-1.2,2.1-2.4,3-3.7
			c15.1-19.6,23.9-42.7,23.9-67.5C800.7,691.5,729,634,640.5,634z M588.1,794.9c0,4.6-3.7,8.3-8.4,8.4h-32.3c-4.6,0-8.3-3.7-8.4-8.4
			v-62c0-4.6,3.7-8.3,8.4-8.4h0.7c4.6,0,8.3,3.7,8.4,8.4v52.9h23.3c4.6,0,8.3,3.7,8.4,8.4V794.9z M612.3,794.9
			c0,4.6-3.7,8.3-8.4,8.4h-0.7c-4.6,0-8.4-3.7-8.4-8.4v-62c0-4.6,3.8-8.3,8.4-8.4h0.7c4.6,0,8.3,3.7,8.4,8.4V794.9z M688,794.9
			c0,2.2-0.9,4.3-2.4,5.9l0,0c-0.6,0.6-1.2,1.2-2,1.5c-1.2,0.6-2.5,1-3.9,1H679c-1.1,0-2.2-0.2-3.2-0.6c-1.3-0.5-2.4-1.3-3.3-2.4
			l0,0c-0.2-0.3-0.4-0.5-0.6-0.8l-30.4-41.6v37.1c0,4.6-3.7,8.3-8.4,8.4h-0.7c-4.6,0-8.3-3.7-8.4-8.4v-62c0-4.6,3.7-8.3,8.4-8.4h0.7
			c3,0,5.8,1.6,7.3,4.2l30.2,40.5v-36.4c0-4.6,3.7-8.3,8.4-8.4h0.7c4.6,0,8.4,3.7,8.4,8.4L688,794.9z M747.8,733.8
			c0,4.6-3.8,8.4-8.4,8.4h-23.3v13.2h23.3c4.6,0,8.4,3.8,8.4,8.4v0.7c0,4.6-3.8,8.4-8.4,8.4h-23.3V786h23.3c4.6,0,8.4,3.7,8.4,8.4
			v0.7c0,4.6-3.8,8.4-8.4,8.4h-32.3c-4.6,0-8.4-3.8-8.4-8.4v-62c0-4.6,3.8-8.4,8.4-8.4h32.3c4.6,0,8.4,3.8,8.4,8.4L747.8,733.8z"/>
	</g>
</g>
<g id="Layer_2_00000101808066250988686520000014565410597997284536_">
	<g id="Layer_1-2_00000088115296101708773180000013287173906142917775_">
		<path class="st0" d="M-387.5,634L-387.5,634c-88.5,0-160.3,57.5-160.3,128.3c0,63.2,57,115.7,132.1,126.4h0
			c1.8,0.2,3.5,0.5,5.3,0.7c25.5,5.3,3.4,37.3,11.8,43.8c9.6,7.5,82.6-41.2,126.9-82.2c6.3-5.3,12.1-11.1,17.4-17.4l0.1-0.1
			c1.1-1.2,2.1-2.4,3-3.7c15.1-19.6,23.9-42.7,23.9-67.5C-227.2,691.5-298.9,634-387.5,634z M-439.8,794.9c0,4.6-3.7,8.3-8.4,8.4
			h-32.3c-4.6,0-8.3-3.7-8.4-8.4v-62c0-4.6,3.7-8.3,8.4-8.4h0.7c4.6,0,8.3,3.7,8.4,8.4v52.9h23.3c4.6,0,8.3,3.7,8.4,8.4V794.9z
			 M-415.6,794.9c0,4.6-3.7,8.3-8.4,8.4h-0.7c-4.6,0-8.4-3.7-8.4-8.4v-62c0-4.6,3.8-8.3,8.4-8.4h0.7c4.6,0,8.3,3.7,8.4,8.4V794.9z
			 M-339.9,794.9c0,2.2-0.9,4.3-2.4,5.9l0,0c-0.6,0.6-1.2,1.2-2,1.5c-1.2,0.6-2.5,1-3.9,1h-0.7c-1.1,0-2.2-0.2-3.2-0.6
			c-1.3-0.5-2.4-1.3-3.3-2.4l0,0c-0.2-0.3-0.4-0.5-0.6-0.8l-30.4-41.6v37.1c0,4.6-3.7,8.3-8.4,8.4h-0.7c-4.6,0-8.3-3.7-8.4-8.4v-62
			c0-4.6,3.7-8.3,8.4-8.4h0.7c3,0,5.8,1.6,7.3,4.2l30.2,40.5v-36.4c0-4.6,3.7-8.3,8.4-8.4h0.7c4.6,0,8.4,3.7,8.4,8.4L-339.9,794.9z
			 M-280.1,733.8c0,4.6-3.8,8.4-8.4,8.4h-23.3v13.2h23.3c4.6,0,8.4,3.8,8.4,8.4v0.7c0,4.6-3.8,8.4-8.4,8.4h-23.3V786h23.3
			c4.6,0,8.4,3.7,8.4,8.4v0.7c0,4.6-3.8,8.4-8.4,8.4h-32.3c-4.6,0-8.4-3.8-8.4-8.4v-62c0-4.6,3.8-8.4,8.4-8.4h32.3
			c4.6,0,8.4,3.8,8.4,8.4V733.8z"/>
	</g>
</g>
</svg>
